<svg viewBox="73.67105263157896 60.412499999999966 334.8684210526316 456.4500000000001" xmlns="http://www.w3.org/2000/svg" overflow="visible" xmlns:xlink="http://www.w3.org/1999/xlink" width="334.8684210526316px" height="456.4500000000001px"><g id="Master/Character/Head" stroke="none" stroke-width="1" fill="none" fill-rule="evenodd"><g id="Head" transform="translate(21.000000, 43.000000) scale(1.647887323943662 1.6508474576271186)"><g id="Head/Ponytail" stroke="none" stroke-width="1" fill="none" fill-rule="evenodd"><g id="Group-32" transform="translate(34.000000, 58.000000)"><g id="Group-3" transform="translate(0.000000, 0.169000)" fill="#000"><path d="M79.3711,181.0709 L86.9981,183.4549 C89.8201,184.2289 92.5861,184.6649 95.5801,185.1809 C101.6741,186.2309 108.0491,186.5059 114.3601,186.7679 C126.2301,187.2609 139.8521,185.5859 149.5951,181.2559 C169.9361,172.2159 174.7751,146.7119 175.8361,125.7709 C177.2561,126.1969 179.0381,128.6689 183.7181,128.6519 C198.8261,128.5969 204.8111,105.3179 192.7691,97.3639 C184.6111,91.9759 178.8131,97.8559 177.2671,98.4939 L177.2411,88.6699 C181.6701,87.9989 181.8771,87.3339 181.9331,80.7349 C181.9661,76.8709 181.6091,72.8139 180.9801,69.0939 C173.3531,23.9139 124.3151,-0.8291 82.3421,15.8319 L73.5131,19.8079 C72.9551,18.5819 70.1751,15.0539 69.2331,14.0199 C65.6861,10.1229 65.2581,10.5559 62.9981,11.4219 C62.4371,10.8509 62.1431,10.2269 61.5041,9.5119 C57.8251,5.4059 50.4441,2.4699 45.0611,1.4599 C29.3081,-1.4981 15.6261,6.3269 6.8501,17.8699 C-6.3219,35.1929 2.5081,68.4809 8.4741,86.2779 C10.8431,93.3449 13.4611,99.8869 16.0861,106.7629 C16.7391,108.4729 17.3721,110.1049 18.0631,111.7429 C19.5211,115.1989 16.5881,120.4189 21.3461,129.1059 C25.1541,136.0599 28.6831,135.8369 29.7111,138.0149 C33.0101,145.0009 38.9711,159.2139 40.8501,165.5239 C46.0451,182.9679 46.5421,196.2169 39.6201,212.6399 C37.5141,217.6359 33.6371,221.7379 32.8681,223.1849 C32.4331,224.0039 32.8141,225.0139 33.4721,225.4639 C36.6791,227.6509 46.5751,222.5409 49.0081,221.0659 C51.1951,219.7399 55.0481,216.7569 57.0591,214.9549 C63.6241,209.0789 65.0851,206.7949 70.3601,200.1779 C73.2661,196.5339 78.3581,187.0089 79.3711,181.0709 L79.3711,181.0709 Z M64.6781,14.4829 C65.3451,14.7859 64.9871,14.4459 65.4361,15.4169 L68.8841,22.5929 L67.3501,23.6109 C66.6681,22.0489 66.1071,20.4519 65.4181,18.7969 C63.9071,15.1709 63.4661,15.1339 64.6781,14.4829 L64.6781,14.4829 Z M66.7831,24.0809 L65.6791,24.7989 L63.0201,18.0659 C61.9051,15.5579 62.1581,16.4059 62.5171,15.8629 L66.7831,24.0809 Z M59.6831,29.5909 C58.4031,26.7689 57.1241,23.1759 55.7161,20.6229 C55.8521,20.3029 56.1231,20.2159 56.5171,20.0059 L60.6221,28.9419 L59.6831,29.5909 Z M57.4391,29.6629 C58.1461,30.9349 58.6401,31.0799 57.2381,31.8009 C57.2031,31.7509 57.1591,31.6819 57.1391,31.6479 L56.5781,30.5149 C56.3981,30.0899 56.2821,29.8289 56.0851,29.3349 C55.6091,28.1419 52.9901,23.0779 53.4511,22.2379 C54.2221,22.5859 54.4541,23.9249 54.7881,24.6389 L57.4391,29.6629 Z M52.4251,23.6209 C52.4611,23.6689 52.5871,23.8379 52.6241,23.8979 L56.7071,32.5029 L55.7641,33.3579 L52.1961,25.5309 C51.5991,24.1689 51.1791,24.1179 52.1981,23.3749 L52.4251,23.6209 Z M54.4171,34.8409 C53.6091,34.0899 52.5311,31.4749 51.9301,30.1359 C51.4881,29.1539 49.9551,26.1939 49.8151,25.2799 L50.8161,24.6149 L55.2531,33.9499 L54.4171,34.8409 Z M37.4331,66.4419 C36.7251,65.6369 36.3751,63.3409 35.9231,61.9879 C35.4711,60.6339 34.8901,59.3389 34.3871,57.9889 C33.3431,55.1899 32.2291,52.6689 31.2121,49.8829 C29.5751,45.4019 26.6811,32.9699 35.1961,36.5199 C34.3811,39.7209 34.1921,38.2469 35.6531,41.1029 C39.9001,49.4029 42.1451,49.3849 43.1941,50.9749 C41.2501,54.3349 38.3091,62.1479 37.4331,66.4419 L37.4331,66.4419 Z M173.9791,89.0249 C174.6111,101.9069 173.6391,116.0289 172.3621,128.7079 C170.9201,143.0299 170.3741,150.6499 164.5211,162.3379 C162.3051,166.7639 159.2791,171.2009 155.4851,174.1799 C142.6701,184.2439 119.2661,184.4409 103.3441,183.1059 C90.2481,182.0079 81.0841,179.2509 70.9501,174.0579 C62.7571,169.8589 55.5921,161.2929 51.5591,151.9319 C47.9021,143.4429 45.2401,127.5799 44.6641,117.2529 C44.4421,113.2779 43.9971,114.1759 45.0281,112.6839 C47.4511,109.1769 51.4771,87.3019 51.8361,83.4099 C52.1451,85.8429 52.6371,88.2689 52.9481,90.7779 C53.2701,93.3739 53.2451,96.1289 54.6151,97.7309 C55.3141,98.1329 61.0001,97.4069 61.8081,97.2829 C91.2851,92.7549 111.6721,90.3989 142.2001,89.0679 L173.9791,89.0249 Z M177.1521,107.4589 L177.2131,102.0949 C178.1371,100.9629 180.2031,99.4379 182.0071,98.7049 C188.2101,96.1839 194.3921,100.1709 195.7761,108.2549 C197.3531,117.4769 190.2541,128.9069 181.1001,125.3469 C179.6641,124.7879 176.8041,122.8779 176.4001,121.8799 C176.1211,121.1909 176.7011,115.3759 176.7881,114.0799 C176.8851,112.6489 177.2251,112.1709 177.9551,111.2049 C178.4211,110.5889 179.3501,109.2979 179.8621,109.0159 C181.8891,107.8999 184.0691,110.9099 183.1121,113.4829 C181.8621,116.8419 178.4571,113.9179 177.9581,116.0679 C177.6721,117.2989 178.8931,117.9649 179.9171,118.1609 C184.2951,119.0039 188.0261,113.1999 185.5861,108.8719 C184.7281,107.3519 184.3301,107.6609 183.4951,106.6549 C185.7381,105.4579 188.6921,106.1109 189.7561,104.2549 C189.5281,103.8229 189.4051,103.6179 188.5601,103.2439 C187.9471,102.9729 187.3071,102.8579 186.6041,102.7919 C181.3361,102.3019 177.9801,106.9519 177.1521,107.4589 L177.1521,107.4589 Z M35.9551,113.1269 C35.0311,114.1269 34.0931,113.8939 32.9361,116.1899 C30.5691,120.8899 33.5581,126.3649 39.6771,125.5309 C42.1671,125.1919 41.9361,123.0409 40.5681,122.6179 C39.0881,122.1609 38.2301,123.8989 36.1411,121.9919 C32.5251,118.6939 37.9041,115.1369 38.4431,114.6049 C39.6281,115.0839 42.0861,117.8829 42.2371,118.6709 C42.3671,119.3479 42.3701,120.5209 42.4461,121.2719 C42.7671,124.4329 43.3321,127.5359 43.7021,130.6549 C43.4941,131.7149 37.1341,138.8699 29.2871,133.6459 C25.5101,131.1319 22.4761,126.9709 21.4601,120.5799 C19.9701,111.2149 24.9511,100.9479 34.5241,102.9869 C37.5021,103.6209 39.3461,105.4839 41.3411,106.7119 L41.9161,114.4139 C41.2781,114.0279 41.6801,114.3159 41.2041,113.8079 C39.6941,112.1959 38.2391,110.9229 35.8341,110.2819 C32.7151,109.4529 29.4681,110.6519 27.9871,112.2019 C24.5671,115.7839 27.0671,118.3699 28.8111,115.4279 C30.5571,112.4829 32.6051,112.4159 35.9551,113.1269 L35.9551,113.1269 Z" id="Fill-1"/></g><path d="M173.9795,89.1935 L142.2005,89.2365 C111.6715,90.5685 91.2855,92.9235 61.8075,97.4525 C61.0005,97.5755 55.3145,98.3015 54.6155,97.9005 C53.2455,96.2975 53.2705,93.5425 52.9485,90.9465 C52.6365,88.4375 52.1455,86.0125 51.8355,83.5785 C51.4775,87.4705 47.4515,109.3465 45.0285,112.8535 C43.9975,114.3445 44.4425,113.4465 44.6645,117.4225 C45.2405,127.7485 47.9025,143.6115 51.5595,152.1005 C55.5915,161.4625 62.7565,170.0275 70.9505,174.2265 C81.0835,179.4195 90.2485,182.1765 103.3435,183.2745 C119.2655,184.6105 142.6695,184.4135 155.4855,174.3495 C159.2795,171.3705 162.3045,166.9325 164.5215,162.5065 C170.3745,150.8185 170.9195,143.1995 172.3625,128.8775 C173.6385,116.1975 174.6115,102.0765 173.9795,89.1935" id="Fill-4" fill="#0089fd"/><path d="M35.9551,113.2955 C32.6051,112.5845 30.5571,112.6515 28.8111,115.5965 C27.0671,118.5395 24.5671,115.9525 27.9871,112.3705 C29.4681,110.8205 32.7151,109.6215 35.8341,110.4515 C38.2391,111.0915 39.6941,112.3655 41.2041,113.9765 C41.6801,114.4845 41.2781,114.1965 41.9161,114.5835 L41.3411,106.8805 C39.3461,105.6525 37.5021,103.7905 34.5241,103.1555 C24.9511,101.1175 19.9701,111.3835 21.4601,120.7495 C22.4761,127.1405 25.5101,131.3005 29.2871,133.8155 C37.1341,139.0385 43.4941,131.8835 43.7021,130.8235 C43.3321,127.7055 42.7671,124.6025 42.4461,121.4415 C42.3701,120.6895 42.3671,119.5165 42.2371,118.8395 C42.0861,118.0515 39.6281,115.2535 38.4431,114.7745 C37.9041,115.3055 32.5251,118.8625 36.1411,122.1605 C38.2301,124.0675 39.0881,122.3295 40.5681,122.7875 C41.9361,123.2105 42.1671,125.3605 39.6771,125.7005 C33.5591,126.5345 30.5691,121.0585 32.9361,116.3585 C34.0931,114.0625 35.0311,114.2955 35.9551,113.2955" id="Fill-6" fill="#0089fd"/><path d="M177.1523,107.6276 C177.9803,107.1216 181.3363,102.4716 186.6043,102.9606 C187.3063,103.0266 187.9473,103.1416 188.5603,103.4136 C189.4053,103.7866 189.5283,103.9926 189.7563,104.4236 C188.6923,106.2796 185.7383,105.6266 183.4953,106.8236 C184.3303,107.8306 184.7283,107.5206 185.5863,109.0406 C188.0263,113.3686 184.2953,119.1726 179.9173,118.3306 C178.8933,118.1336 177.6723,117.4676 177.9583,116.2366 C178.4573,114.0866 181.8623,117.0116 183.1123,113.6516 C184.0693,111.0796 181.8883,108.0686 179.8623,109.1856 C179.3503,109.4666 178.4213,110.7576 177.9553,111.3746 C177.2253,112.3396 176.8843,112.8176 176.7883,114.2496 C176.7013,115.5446 176.1213,121.3596 176.4003,122.0486 C176.8033,123.0466 179.6643,124.9576 181.1003,125.5156 C190.2543,129.0766 197.3533,117.6456 195.7763,108.4236 C194.3923,100.3396 188.2103,96.3536 182.0063,98.8736 C180.2033,99.6066 178.1363,101.1316 177.2133,102.2636 L177.1523,107.6276 Z" id="Fill-8" fill="#0089fd"/><path d="M49.8154,25.4489 C49.9554,26.3629 51.4884,29.3229 51.9294,30.3049 C52.5314,31.6439 53.6094,34.2589 54.4174,35.0099 L55.2524,34.1189 L50.8164,24.7839 L49.8154,25.4489 Z" id="Fill-12" fill="#FFF"/><path d="M67.3496,23.7799 L68.8836,22.7619 L65.4366,15.5859 C64.9876,14.6139 65.3446,14.9549 64.6776,14.6519 C63.4656,15.3029 63.9076,15.3399 65.4176,18.9659 C66.1076,20.6209 66.6676,22.2179 67.3496,23.7799" id="Fill-14" fill="#FFF"/><path d="M55.7637,33.527 L56.7067,32.672 L52.6237,24.067 C52.5867,24.007 52.4607,23.838 52.4247,23.79 L52.1987,23.544 C51.1787,24.287 51.5987,24.338 52.1967,25.7 L55.7637,33.527 Z" id="Fill-16" fill="#FFF"/><path d="M55.7158,20.7921 C57.1238,23.3451 58.4038,26.9381 59.6828,29.7591 L60.6218,29.1111 L56.5178,20.1751 C56.1228,20.3841 55.8528,20.4721 55.7158,20.7921" id="Fill-18" fill="#FFF"/><path d="M57.2383,31.9699 C58.6393,31.2489 58.1463,31.1039 57.4393,29.8319 L54.7883,24.8079 C54.4543,24.0939 54.2213,22.7549 53.4513,22.4069 C52.9903,23.2469 55.6093,28.3109 56.0853,29.5039 C56.2823,29.9979 56.3983,30.2589 56.5783,30.6839 L57.1383,31.8169 C57.1593,31.8509 57.2033,31.9199 57.2383,31.9699" id="Fill-20" fill="#FFF"/><path d="M65.6787,24.9679 L66.7827,24.2499 L62.5177,16.0309 C62.1577,16.5749 61.9057,15.7269 63.0207,18.2349 L65.6787,24.9679 Z" id="Fill-22" fill="#FFF"/><path d="M37.249,38.4327 C37.593,39.2907 39.759,41.8247 40.412,42.6807 C41.303,43.8477 42.946,46.1487 43.905,46.6957 L44.516,45.6397 L38.072,37.5577 L37.249,38.4327 Z" id="Fill-24" fill="#FFF"/><path d="M39.624,38.1359 L44.878,44.9469 L45.603,43.8989 L39.67,36.4489 C39.62,36.3989 39.458,36.2619 39.412,36.2239 L39.136,36.0359 C38.312,36.9919 38.732,36.9459 39.624,38.1359" id="Fill-26" fill="#FFF"/><path d="M40.0967,34.6442 C39.8387,35.5662 43.5427,39.9022 44.2767,40.9552 C44.5797,41.3922 44.7537,41.6202 45.0247,41.9922 L45.8277,42.9682 C45.8557,42.9972 45.9147,43.0542 45.9597,43.0952 C47.1597,42.0742 46.6477,42.0452 45.6697,40.9672 L41.9457,36.6782 C41.4577,36.0592 40.9267,34.8072 40.0967,34.6442" id="Fill-28" fill="#FFF"/><path d="M41.9355,32.5563 C43.8875,34.7223 45.9505,37.9303 47.8375,40.3863 L48.6055,39.5403 L42.5765,31.7723 C42.2395,32.0663 41.9965,32.2133 41.9355,32.5563" id="Fill-30" fill="#FFF"/></g></g></g><g id="Expression" transform="translate(166.000000, 228.000000) scale(1.6492537313432836 1.6466165413533835)"><g id="Expression/Laughing" stroke="none" stroke-width="1" fill="none" fill-rule="evenodd"><g id="Group-12" transform="translate(37.000000, 29.000000)"><path d="M55.2437,54.2264 C57.7957,53.7034 60.1477,52.5564 62.3317,51.4564 C63.4677,50.8854 64.7257,50.3394 65.0637,49.3644 C65.6737,47.6064 63.8817,46.9834 62.4837,47.5064 C61.5617,47.8514 60.3087,48.6294 59.2487,49.0874 C58.0317,49.6134 56.8867,50.0554 55.5987,50.4824 C47.0027,53.3324 38.2737,52.6684 30.3197,49.3024 C26.9097,47.8594 26.4227,50.5094 25.4907,53.2474 C21.8057,64.0844 24.6867,77.0954 34.2647,80.8934 C42.1187,84.0084 49.2897,78.6054 52.9787,71.3754 C56.1217,65.2174 55.7007,60.2374 55.2437,54.2264 M29.2807,51.2744 C40.5657,56.9484 40.1917,55.1834 51.2647,55.2324 L51.6157,60.5764 C46.7497,61.6464 42.8887,61.5494 38.0507,60.5194 C35.1637,59.9054 32.4117,59.0644 29.9617,57.5824 C29.0727,57.0454 28.5437,56.4814 27.7187,56.0614 C27.9587,54.3264 28.6247,52.7814 29.2807,51.2744" id="Fill-15" fill="#000"/><path d="M12.647,20.2748 C10.792,19.4788 9.376,17.7348 6.85,17.1008 C6.927,19.0448 10.108,22.4628 11.302,22.9978 L10.562,25.7918 C9.181,25.1398 1.038,19.2178 0,18.8798 C0.028,20.9378 7.789,26.6558 9.852,28.1338 L9.271,31.1708 C6.721,30.0678 3.962,28.6658 1.367,27.6928 C1.403,29.4018 7.57,32.9218 8.729,33.8938 C8.737,35.5498 8.004,39.2418 8.251,40.6178 C8.438,41.6628 8.74,41.6148 9.816,41.5778 C11.306,39.5358 11.266,26.8278 15.984,19.9808 C21.386,12.1418 24.859,28.6678 25.681,33.7658 C25.897,35.0988 26.267,38.8578 27.171,39.3028 C31.414,41.3938 26.942,24.3328 26.469,22.9168 C22.36,10.5908 15.025,13.5988 12.647,20.2748" id="Fill-17" fill="#000"/><path d="M56.5454,36.9730557 C57.3864,35.888 58.1394,29.374 58.7434,27.226 C59.4094,24.859 60.9754,19.778 62.7734,19.175 C65.2064,20.293 66.8394,28.947 67.5214,32.536 C67.7164,33.563 67.9224,35.194 68.3654,35.974 C69.0314,37.146 70.6904,37.256 71.0884,35.725 C71.5134,34.091 70.2034,29.712 69.9664,27.884 C71.4694,27.347 74.7524,25.428 75.0254,23.814 L69.3194,25.642 C69.7024,24.605 70.0784,24.708 71.3194,23.481 C72.7924,22.025 75.8084,18.821 75.9834,16.614 L72.2864,19.41 C71.3194,20.115 69.3414,22.116 68.5334,22.383 C67.2594,20.359 70.1004,20.332 70.4524,16.998 C69.0474,17.469 68.2684,18.481 67.0934,19.074 C65.9044,17.652 64.2794,14.787 61.2344,16.267 C59.4764,17.122 58.0734,19.526 57.2994,21.711 C55.9894,25.406 54.9994,29.688 54.9504,33.655 C54.9304,35.365 54.7834,36.984 56.5454,36.9730557" id="Fill-19" fill="#000"/><path d="M29.2808,51.2743 C28.6248,52.7813 27.9588,54.3263 27.7188,56.0623 C28.5438,56.4813 29.0728,57.0453 29.9618,57.5833 C32.4118,59.0643 35.1638,59.9053 38.0508,60.5203 C42.8878,61.5493 46.7498,61.6473 51.6158,60.5763 L51.2638,55.2323 C40.1918,55.1833 40.5658,56.9483 29.2808,51.2743" id="Fill-21" fill="#FEFEFE"/><path d="M42.3736,16.4496 C40.9486,19.7456 45.1996,29.2056 45.3156,33.6456 C45.4266,37.8446 43.6136,38.6686 39.4926,38.2976 C38.1636,38.1776 35.6526,37.7206 35.9476,39.5886 C36.1326,40.7666 38.1346,41.1416 39.5146,41.3226 C47.1536,42.3256 49.9726,37.8686 48.7736,30.6416 C48.0806,26.4586 45.2966,16.9526 42.3736,16.4496" id="Fill-23" fill="#000"/><path d="M1.5816,14.2006 C2.1536,14.0266 3.7726,12.3916 6.1326,11.0916 C10.9576,8.4316 14.4146,6.7626 19.6166,5.1356 C21.1026,4.6716 21.5056,4.5306 21.0886,2.8256 C15.3206,0.0326 1.8666,10.5516 1.5816,14.2006" id="Fill-25" fill="#000"/><g id="Group-29" transform="translate(63.476100, 0.000000)" fill="#000"><path d="M12.7363,12.0834 C12.1503,9.5584 4.0563,-1.4826 0.7413,1.5004 C-1.3677,3.3954 3.1893,5.4864 5.6753,7.3624 C6.9433,8.3174 10.5783,11.8464 12.7363,12.0834" id="Fill-27"/></g></g></g></g><g id="Head Gear" transform="translate(130.000000, 7.000000) scale(1.6493506493506493 1.646153846153846)"><g id="Head Gear/Baseball Cap" stroke="none" stroke-width="1" fill="none" fill-rule="evenodd"><g id="Group-5" transform="translate(32.000000, 33.000000)"><path d="M7.06032631,55.9585523 C11.1383263,55.7985523 19.7703263,52.8955523 23.8173263,51.6805523 C28.9193263,50.1475523 34.3533263,48.2205523 39.1423263,46.3335523 C42.6923263,44.9335523 65.2803263,36.1955523 68.1803263,34.2375523 C68.0963263,32.6105523 67.1363263,28.4615523 66.7293263,26.6725523 C65.2273263,20.0495523 62.8323263,12.4565523 56.9543263,9.10255234 C49.7903263,5.01555234 33.4883263,7.91155234 25.4763263,9.88455234 C15.2583263,12.4005523 7.00432631,15.8625523 4.05632631,24.7285523 C0.879326314,34.2855523 5.58032631,46.6555523 7.06032631,55.9585523 L7.06032631,55.9585523 Z M31.7493263,13.4585523 C37.8833263,12.0415523 42.7693263,16.4405523 43.7133263,21.1665523 C44.8943263,27.0895523 41.0293263,31.9895523 36.4953263,33.1455523 C30.5263263,34.6675523 25.3263263,29.9305523 24.4083263,25.5535523 C23.1183263,19.3975523 26.8963263,14.5805523 31.7493263,13.4585523 L31.7493263,13.4585523 Z M63.4213263,25.6355523 C63.6963263,32.6875523 54.2713263,34.9025523 53.1033263,27.6985523 L63.4213263,25.6355523 Z" id="Fill-42" fill="#FE880F"/><path d="M26.8215263,6.45615234 C23.5825263,6.98615234 17.6325263,8.85415234 14.8675263,10.0861523 C0.556526314,16.4571523 -1.54647369,24.8541523 0.842526314,41.2031523 C1.47652631,45.5381523 2.43852631,49.9191523 3.46152631,54.2121523 C3.98352631,56.4051523 4.64652631,57.9251523 5.42252631,59.9091523 C6.49352631,62.6511523 6.87952631,62.6581523 10.1035263,63.1841523 C27.5045263,66.0241523 47.6125263,61.5001523 63.7385263,55.8351523 C72.0495263,52.9161523 78.8535263,50.9781523 86.0425263,46.6891523 C88.9385263,44.9611523 105.321526,34.4881523 97.3625263,30.6181523 C91.6825263,27.8551523 83.4655263,28.8511523 77.3235263,30.7791523 C75.2775263,31.4211523 73.1575263,32.4331523 71.3115263,32.8511523 L70.1025263,24.8091523 C74.7215263,22.9741523 76.6315263,14.1651523 70.0455263,10.8861523 C67.3205263,9.52915234 66.5825263,10.1051523 63.7615263,10.4351523 C62.2485263,7.95715234 58.2555263,5.38815234 54.1075263,4.51615234 C47.4085263,3.10715234 44.5385263,4.31115234 39.5015263,4.17315234 C38.0295263,1.41315234 36.2555263,-0.73684766 32.1275263,0.23915234 C28.9905263,0.98015234 26.9445263,2.86315234 26.8215263,6.45615234 L26.8215263,6.45615234 Z M28.8085263,5.83915234 C30.1445263,3.11315234 34.3835263,1.20115234 36.2795263,4.62115234 L28.8085263,5.83915234 Z M65.4805263,12.6701523 C67.3275263,12.5981523 68.7005263,13.3351523 69.3865263,14.3171523 C68.3785263,15.0931523 68.2695263,15.0791523 68.6615263,16.6041523 C69.8445263,17.0781523 69.9385263,16.7791523 71.0925263,16.7601523 C71.5975263,19.2351523 71.0715263,21.2931523 69.2125263,21.7241523 C68.2175263,18.8521523 67.0535263,14.7291523 65.4805263,12.6701523 L65.4805263,12.6701523 Z M8.31552631,60.1091523 L7.74952631,57.8791523 C18.3775263,57.2591523 36.0485263,50.3811523 46.1615263,46.6431523 C52.1795263,44.4181523 57.8985263,41.9711523 63.6915263,39.4731523 C67.6505263,37.7661523 77.4205263,33.0411523 81.9235263,32.8731523 C75.1355263,35.4231523 70.5855263,37.5631523 64.3495263,40.3611523 C46.4465263,48.3921523 36.5195263,51.5101523 18.2915263,57.4481523 C15.3025263,58.4221523 11.7115263,59.8751523 8.31552631,60.1091523 L8.31552631,60.1091523 Z M7.06052631,55.9581523 C5.58052631,46.6551523 0.879526314,34.2861523 4.05652631,24.7281523 C7.00452631,15.8631523 15.2585263,12.4001523 25.4755263,9.88515234 C33.4885263,7.91115234 49.7905263,5.01515234 56.9545263,9.10215234 C62.8325263,12.4561523 65.2265263,20.0501523 66.7295263,26.6721523 C67.1355263,28.4621523 68.0955263,32.6111523 68.1795263,34.2371523 C65.2805263,36.1961523 42.6925263,44.9331523 39.1415263,46.3331523 C34.3535263,48.2211523 28.9195263,50.1481523 23.8175263,51.6811523 C19.7705263,52.8961523 11.1375263,55.7981523 7.06052631,55.9581523 L7.06052631,55.9581523 Z" id="Fill-44" fill="#000"/><path d="M26.5686263,23.9175523 C27.3296263,33.6915523 41.8706263,32.6755523 41.7476263,23.1905523 C41.6966263,19.2505523 37.9976263,15.7585523 33.7616263,16.1935523 C30.0126263,16.5785523 26.2386263,19.6805523 26.5686263,23.9175523 M36.4566263,19.8025523 C40.1916263,18.4155523 41.2986263,23.8965523 38.2036263,24.8015523 C34.7456263,25.8125523 32.9446263,21.1065523 36.4566263,19.8025523" id="Fill-46" fill="#2280FD"/><path d="M31.7492263,13.4590523 C26.8962263,14.5800523 23.1182263,19.3980523 24.4082263,25.5530523 C25.3262263,29.9310523 30.5262263,34.6670523 36.4952263,33.1460523 C41.0292263,31.9900523 44.8952263,27.0890523 43.7132263,21.1670523 C42.7702263,16.4400523 37.8832263,12.0420523 31.7492263,13.4590523 M26.5682263,23.9170523 C26.2392263,19.6810523 30.0132263,16.5790523 33.7622263,16.1940523 C37.9972263,15.7580523 41.6962263,19.2510523 41.7472263,23.1910523 C41.8702263,32.6750523 27.3292263,33.6910523 26.5682263,23.9170523" id="Fill-48" fill="#000"/><path d="M8.31512631,60.1094523 C11.7111263,59.8754523 15.3021263,58.4224523 18.2921263,57.4484523 C36.5201263,51.5094523 46.4461263,48.3914523 64.3501263,40.3604523 C70.5851263,37.5634523 75.1361263,35.4234523 81.9231263,32.8734523 C77.4201263,33.0414523 67.6501263,37.7654523 63.6911263,39.4724523 C57.8981263,41.9714523 52.1801263,44.4184523 46.1611263,46.6424523 C36.0481263,50.3804523 18.3781263,57.2584523 7.75012631,57.8794523 L8.31512631,60.1094523 Z" id="Fill-50" fill="#2280FD"/><path d="M53.1037263,27.6987523 C54.2717263,34.9027523 63.6967263,32.6877523 63.4207263,25.6357523 L53.1037263,27.6987523 Z" id="Fill-52" fill="#000"/><path d="M36.4562263,19.8022523 C32.9442263,21.1072523 34.7452263,25.8122523 38.2042263,24.8022523 C41.2982263,23.8972523 40.1912263,18.4152523 36.4562263,19.8022523" id="Fill-54" fill="#000"/><path d="M65.4807263,12.6704523 C67.0537263,14.7294523 68.2167263,18.8514523 69.2117263,21.7234523 C71.0717263,21.2934523 71.5977263,19.2344523 71.0927263,16.7594523 C69.9387263,16.7794523 69.8447263,17.0774523 68.6617263,16.6044523 C68.2697263,15.0784523 68.3777263,15.0924523 69.3867263,14.3174523 C68.7007263,13.3354523 67.3277263,12.5974523 65.4807263,12.6704523" id="Fill-56" fill="#2280FD"/><path d="M28.8083263,5.83945234 L36.2803263,4.62045234 C34.3843263,1.20045234 30.1443263,3.11245234 28.8083263,5.83945234" id="Fill-58" fill="#2280FD"/></g></g></g></g></svg>