<svg viewBox="87.06578947368416 154.38749999999993 321.47368421052647 335.625" xmlns="http://www.w3.org/2000/svg" overflow="visible" xmlns:xlink="http://www.w3.org/1999/xlink" width="321.47368421052647px" height="335.625px"><g id="Master/Character/Head" stroke="none" stroke-width="1" fill="none" fill-rule="evenodd"><g id="Head" transform="translate(21.000000, 43.000000) scale(1.647887323943662 1.6508474576271186)"><g id="Head/Bob" stroke="none" stroke-width="1" fill="none" fill-rule="evenodd"><g id="Group" transform="translate(45.000000, 69.000000)"><g id="Group-3" transform="translate(9.000000, 91.000000)" fill="#f45675"><path d="M22.098681,12.1076026 L21.4833916,4.12470459 C19.2696292,2.80544857 17.510136,0.94937037 14.2140188,0.265388455 C7.57912993,-1.10982973 2.89141354,3.02204284 0.918648445,8.90325097 C-0.0645350212,11.8340098 -0.231953464,15.3181723 0.289496336,18.5173422 C1.33879409,24.9685353 4.59012423,29.6869741 8.62629497,32.0404937 C11.2591366,33.576344 14.0082114,34.5950626 17.6530282,33.6126158 C20.2837371,32.9037618 23.0114847,30.6818569 24,28.9377031 C23.6097124,25.713661 23.0050866,22.4844373 22.6627852,19.2272325 C22.5774764,18.4105996 22.5710783,17.3898084 22.4591105,16.648828 C22.2266441,15.1119413 22.098681,12.1076026 22.098681,12.1076026 Z" id="Fill-1"/></g><g id="Group-36"><path d="M32.4592,93.8239 C32.8342,105.7819 34.1502,115.7889 36.4402,127.4299 C38.7732,139.2879 41.2092,144.4699 48.0012,153.2759 C53.0462,159.8149 60.6922,164.2579 70.9012,167.8259 C80.6532,171.2359 92.3172,172.3989 103.5552,172.5919 C114.7972,172.7859 126.6702,171.5419 136.1502,167.7419 C146.1232,163.7429 150.3432,157.2639 154.4872,148.6399 C159.3212,138.5829 159.8692,129.8499 161.0732,117.7859 C162.2142,106.3659 163.3132,93.3819 162.7302,81.7719 C158.3182,80.5009 146.6142,69.7619 143.3402,65.8609 L138.3672,59.3019 L133.4462,63.5169 C123.5832,72.2099 104.6212,80.9589 92.4122,85.6089 C80.6852,90.0739 61.7642,94.9019 48.6092,95.6759 C40.3952,96.1589 38.9592,94.9359 32.4592,93.8239" id="Fill-1" fill="#f45675"/><path d="M22.1335,88.6706 C25.4075,89.0106 24.8515,90.1656 26.4565,89.7236 C28.4855,89.1646 36.2165,91.7496 41.4035,92.0606 C63.1275,93.3626 102.8655,79.3326 121.3795,67.0466 C122.6335,66.2136 123.8125,65.5806 124.8735,64.7876 C132.8695,58.8156 133.6715,57.6616 140.6725,51.3026 C142.2425,49.8766 152.1785,40.7866 153.2385,40.6026 C152.9375,41.7806 151.1845,43.9996 150.4205,45.2076 C149.8865,46.0506 149.4275,46.5836 148.7995,47.4236 C147.3495,49.3586 141.9075,55.9896 140.3655,57.1566 C140.9595,58.5946 144.5425,62.3516 145.8695,63.8156 C146.5665,64.5846 147.1425,65.1566 147.8865,65.8766 L152.1245,69.8026 C164.8435,81.2406 173.8925,80.5796 177.4705,84.4296 C177.6755,82.6816 177.0085,79.5976 176.6975,77.8476 C175.5205,71.2026 176.5665,73.0506 172.7075,70.5756 C169.4365,68.4796 165.1445,65.3926 162.2305,62.8166 C159.8115,60.6786 150.7005,54.2096 152.8015,51.2296 C154.6915,50.9816 156.8045,53.8626 158.8935,55.8296 L167.2445,63.3216 C169.8825,65.8716 172.1705,68.5286 175.2475,70.9866 C173.9445,62.9136 170.0865,52.1396 166.8945,45.4246 C154.9955,20.3896 137.5775,5.1986 104.7675,5.1986 C80.7775,5.1986 59.0925,10.3916 42.6005,26.6696 C29.9045,39.2016 27.2865,52.8106 24.5205,70.7856 C24.0895,73.5836 21.9165,87.0246 22.1335,88.6706 M43.8175,56.6766 C44.3635,56.0426 46.7695,55.1816 47.7915,54.6646 C51.7195,52.6796 55.5125,50.3536 59.2245,48.0886 C71.4825,40.6096 84.5185,33.4476 95.9625,24.8306 C97.3815,23.7616 101.9005,19.2866 102.9605,20.8166 C104.3305,22.7936 96.7005,28.6986 94.6745,30.2676 C87.8845,35.5216 83.8305,37.6446 76.3775,41.9686 C71.3675,44.8746 66.0775,47.7186 60.6895,50.2846 C57.9015,51.6126 55.2585,52.8306 52.4215,54.0096 L44.8275,56.7696 C44.0765,56.9206 44.0935,56.8446 43.8175,56.6766 M37.4765,65.6516 C38.0825,65.1536 39.1985,64.7956 40.0495,64.4406 C44.6495,62.5166 53.4005,57.9496 58.1115,55.6166 C64.9755,52.2166 71.8165,48.8906 78.6505,45.4376 C86.6365,41.4016 100.0325,33.3166 107.1985,27.6666 L111.5355,24.3246 C112.5385,23.5686 115.1115,21.6176 116.2765,21.4256 C116.5025,24.0576 111.6335,28.2706 109.4685,30.1756 C102.8555,35.9986 89.0155,44.5376 81.2865,48.3196 C68.9785,54.3426 56.2415,60.1116 43.0865,64.3586 C42.1645,64.6556 41.1025,65.0276 40.1885,65.2936 C38.6015,65.7546 38.0435,66.1696 37.4765,65.6516 M31.8415,75.4006 C32.2875,74.7536 32.5035,74.8996 33.4805,74.6716 C36.8615,73.8866 42.0045,71.8236 45.1575,70.5046 C57.4285,65.3726 71.1765,59.7496 82.9645,54.3086 C96.0685,48.2586 111.2565,39.3606 123.1205,31.1026 C124.5285,30.1226 126.8055,27.7376 128.9815,28.1546 C129.5965,30.6696 126.4355,32.4896 125.2255,33.4626 L122.7365,35.5276 C121.8135,36.2466 121.2175,36.6666 120.1685,37.5116 C117.2985,39.8236 112.6535,42.7096 109.3155,44.6676 C89.9805,56.0046 83.1535,59.3546 59.9575,67.7866 C56.3125,69.1116 34.4355,76.5916 31.8415,75.4006 M42.7165,79.8216 C43.2175,79.4376 48.4175,78.3336 49.6895,77.9236 C51.8795,77.2186 53.9425,76.4656 56.0585,75.6456 C67.1865,71.3336 82.6355,65.2066 92.9825,60.4896 C101.2315,56.7286 108.4795,52.9716 115.8705,48.5776 C117.8035,47.4286 119.4645,46.2146 121.2725,45.1026 C122.9475,44.0716 124.9125,42.7586 126.4955,41.6816 C129.1165,39.8986 132.8935,36.8026 135.7235,35.7546 C137.0405,35.2686 136.7255,35.4086 136.7345,35.7146 C136.8335,39.0916 126.6345,45.6446 123.1855,48.2146 C121.5375,49.4436 119.6835,50.4376 117.9485,51.6166 C103.2425,61.6106 73.7615,72.9746 56.7545,77.5576 C54.4745,78.1726 52.1075,78.7206 49.7665,79.1896 C48.5355,79.4356 47.3705,79.6406 46.0695,79.8166 C44.1165,80.0806 43.2615,80.4076 42.7165,79.8216 M43.8355,85.9566 C44.3805,85.5286 49.6675,84.3616 50.9545,83.9906 C57.4795,82.1056 65.2525,79.0436 71.7145,76.6596 C80.7675,73.3186 90.0795,69.9666 98.7175,66.2216 C111.5565,60.6536 123.7915,54.4256 135.1285,46.7166 C137.2975,45.2426 142.6035,41.5886 144.5185,39.7826 C145.0795,39.2556 145.0645,39.0246 145.9295,39.0342893 C146.4225,41.0926 143.1255,43.4746 142.1585,44.3956 C133.8445,52.3096 111.1515,64.4346 100.9445,68.6976 C88.5325,73.8826 72.5565,79.5876 59.2285,83.1396 L44.7365,86.1696 C43.7655,86.1686 44.3115,86.2656 43.8355,85.9566 M160.8675,50.7366 C162.1725,52.2046 163.5915,53.4046 164.9075,54.8536 L170.6555,61.3536 C178.5865,69.1036 153.0465,49.7976 156.2235,47.4066 C157.5865,46.3806 160.2645,50.0596 160.8675,50.7366 M152.4845,58.3976 C155.9785,62.0026 167.3755,73.7686 170.7775,76.3506 C171.0565,76.5626 171.3465,76.7286 171.6215,76.9636 C172.1335,77.4036 172.1245,77.0286 172.0035,77.5976 C170.9995,77.8376 165.7315,74.0316 164.4155,73.1136 C160.4695,70.3626 157.7645,67.7136 154.4065,64.6396 C153.2795,63.6086 152.2695,62.6916 151.2235,61.5796 C149.7435,60.0056 145.9985,56.3736 147.5505,54.1196 C149.1575,53.8656 150.2965,55.6176 151.1065,56.6516 C151.6575,57.3536 151.8345,57.7276 152.4845,58.3976" id="Fill-3" fill="#4B4B4F"/><g id="Group-7" transform="translate(0.000000, 0.447000)" fill="#000"><path d="M18.6721,88.4643 C14.3151,89.5943 12.2891,91.5373 10.2871,94.4713 C8.4011,97.2343 7.1551,101.3933 7.1321,105.6683 C7.0831,114.5693 11.7511,121.9423 16.7091,124.7593 C15.1821,137.3383 11.7831,148.9523 8.0261,160.1153 C7.0871,162.9093 6.3771,165.5943 5.3251,168.2283 C4.0001,171.5443 1.5341,175.8263 0.2411,179.7173 C-0.3609,181.5293 0.1841,182.4943 1.6441,183.1153 C45.6951,201.8683 121.9511,201.6843 165.6941,182.2033 C167.5391,181.3813 167.8311,181.5323 168.6271,179.6033 C171.4391,172.7883 173.4941,160.3943 175.0111,152.9073 C176.6951,144.5933 180.8671,121.9063 180.6081,114.2453 C190.5301,107.4433 189.7291,90.7373 181.7041,86.1313 C182.4341,76.4353 177.3641,59.6543 174.3751,51.4263 C170.0821,39.6103 161.1861,24.0773 151.7891,16.4013 C150.8431,15.6293 150.0001,14.7403 148.9391,13.9713 C144.2811,10.5973 141.5441,8.4983 135.6711,6.1293 C123.8521,1.3613 113.0481,0.3043 99.0071,0.5983 C86.6881,0.8553 74.0351,3.1613 63.9391,7.4753 C53.3371,12.0053 42.0051,19.5023 36.2881,26.8703 C33.3071,30.7133 32.4311,31.2933 29.7191,36.1453 C24.1111,46.1793 22.2211,57.8703 20.6861,69.3123 C19.8871,75.2663 18.7941,82.4573 18.6721,88.4643 L18.6721,88.4643 Z M22.1331,88.2233 C21.9161,86.5773 24.0891,73.1363 24.5201,70.3383 C27.2861,52.3633 29.9041,38.7553 42.6011,26.2223 C59.0931,9.9443 80.7771,4.7513 104.7681,4.7513 C137.5771,4.7513 154.9951,19.9423 166.8951,44.9783 C170.0861,51.6923 173.9441,62.4663 175.2471,70.5393 C172.1701,68.0823 169.8821,65.4243 167.2441,62.8743 L158.8941,55.3823 C156.8051,53.4153 154.6921,50.5343 152.8021,50.7823 C150.7001,53.7623 159.8121,60.2313 162.2311,62.3693 C165.1451,64.9453 169.4371,68.0323 172.7071,70.1293 C176.5671,72.6033 175.5211,70.7553 176.6971,77.4013 C177.0081,79.1513 177.6751,82.2343 177.4711,83.9833 C173.8931,80.1323 164.8441,80.7943 152.1241,69.3563 L147.8871,65.4293 C147.1431,64.7093 146.5671,64.1373 145.8691,63.3683 C144.5421,61.9043 140.9591,58.1483 140.3651,56.7093 C141.9071,55.5423 147.3501,48.9123 148.7991,46.9773 C149.4281,46.1363 149.8871,45.6033 150.4201,44.7603 C151.1851,43.5523 152.9381,41.3333 153.2381,40.1553 C152.1791,40.3393 142.2421,49.4293 140.6721,50.8553 C133.6711,57.2143 132.8691,58.3683 124.8731,64.3403 C123.8131,65.1333 122.6331,65.7673 121.3791,66.5993 C102.8651,78.8853 63.1271,92.9163 41.4031,91.6133 C36.2161,91.3023 28.4851,88.7173 26.4561,89.2763 C24.8511,89.7183 25.4071,88.5633 22.1331,88.2233 L22.1331,88.2233 Z M165.9931,86.9523 L166.0181,83.1123 L170.0841,84.4563 C168.4801,85.1173 167.2041,86.1333 165.9931,86.9523 L165.9931,86.9523 Z M165.8831,95.9123 L165.9521,90.3133 C167.6001,89.4043 168.5951,87.7993 171.6191,86.8393 C172.9011,86.4323 174.3801,86.3383 175.7901,86.5143 C181.1681,87.1843 185.2581,93.5653 184.7061,100.8793 C184.2971,106.2973 181.4271,110.8223 178.1711,112.8323 C172.8871,116.0943 167.6871,113.6653 165.0031,110.2293 C165.0301,107.8543 165.3351,104.7393 165.5331,102.2973 C165.6861,100.4173 168.1181,97.4393 169.1301,97.2783 C171.4261,96.9123 172.9431,100.3073 171.5151,102.5783 C169.8561,105.2153 165.9371,101.7333 166.7871,105.8483 C171.9401,108.8273 176.1391,103.0013 174.8271,98.4993 C174.1551,96.1933 172.7251,95.7093 172.2241,95.1093 C174.4071,93.7563 177.3201,94.7383 178.4851,92.7093 C178.2271,92.2163 178.5911,92.6283 178.0501,92.1503 C175.3541,89.7693 169.9001,91.8683 166.6281,95.2843 L165.8831,95.9123 Z M32.4591,93.3773 C38.9591,94.4893 40.3951,95.7123 48.6091,95.2283 C61.7641,94.4553 80.6851,89.6273 92.4121,85.1613 C104.6211,80.5123 123.5831,71.7633 133.4461,63.0703 L138.3671,58.8543 L143.3401,65.4133 C146.6141,69.3153 158.3181,80.0543 162.7311,81.3253 C163.3141,92.9343 162.2141,105.9193 161.0731,117.3393 C159.8691,129.4033 159.3211,138.1353 154.4871,148.1933 C150.3431,156.8173 146.1231,163.2963 136.1511,167.2953 C126.6701,171.0953 114.7971,172.3393 103.5551,172.1453 C92.3181,171.9513 80.6531,170.7893 70.9011,167.3793 C60.6931,163.8103 53.0461,159.3673 48.0021,152.8283 C41.2091,144.0233 38.7741,138.8403 36.4411,126.9833 C34.1501,115.3423 32.8341,105.3343 32.4591,93.3773 L32.4591,93.3773 Z M24.6831,101.5833 L23.8131,102.2413 C23.4451,102.4883 23.3071,102.5503 22.9811,102.8443 C21.3101,104.3553 20.4621,107.1933 21.0751,109.6723 C21.8021,112.6093 24.6901,114.4813 28.3941,113.9923 C30.6381,113.6953 30.8251,111.7513 29.4661,111.1373 C28.0691,110.5073 26.8461,112.0603 24.9081,110.6443 C23.7891,109.8273 23.3221,107.6973 24.2191,105.9933 C24.9751,104.5583 26.0931,104.1273 27.1721,103.0603 C28.1201,103.4433 30.7671,105.7673 30.9851,107.2513 C31.0901,107.9663 31.0951,108.9503 31.1761,109.7393 C31.4971,112.8813 32.0641,115.9973 32.4301,119.1093 C31.5031,120.7923 28.9451,122.9353 26.4781,123.6203 C23.0601,124.5683 20.4821,123.5853 18.0131,122.1033 C14.2281,119.8323 11.1781,115.2783 10.1941,109.0543 C9.7061,105.9673 9.8621,102.6053 10.7841,99.7773 C12.6341,94.1023 17.0301,90.1153 23.2531,91.4423 C26.3441,92.1013 27.9941,93.8923 30.0701,95.1663 L30.6471,102.8683 C29.5821,102.2213 28.3171,99.7363 24.5641,98.7363 C21.1361,97.8233 18.5931,99.0013 16.8201,100.7623 C13.9771,103.5893 14.9241,105.2313 16.1691,105.1133 C18.2671,104.9153 17.0561,99.9553 24.6831,101.5833 L24.6831,101.5833 Z M155.3951,182.0883 L159.6321,167.9823 C160.9491,163.1983 162.0681,158.2313 163.2811,153.3743 C165.4201,144.8023 167.3971,135.0453 167.8941,126.0703 C167.9641,124.8183 168.4021,122.5593 167.8881,121.7043 C167.3931,122.3633 167.4701,122.5343 167.2681,123.5303 C166.6231,126.7063 164.6661,132.6803 163.6981,136.7683 C162.4431,142.0733 161.4691,147.3863 160.0351,152.5403 C159.2441,155.3833 152.8151,181.3243 151.8811,183.2793 L145.4901,185.3063 C146.0971,181.5973 146.2591,178.6353 146.6171,174.9643 C146.7881,173.2153 147.0131,171.5063 147.0681,169.7503 C147.1221,168.0233 146.8851,165.5593 147.0891,164.0703 C148.2661,162.6943 149.9321,161.5773 151.1741,159.7563 C155.1551,153.9243 157.2801,150.9603 159.8811,143.2643 C162.8201,134.5653 164.0331,124.0363 164.5661,114.2243 C166.0911,114.6723 166.2611,115.9383 169.9381,116.8263 C172.7541,117.5063 174.3191,116.9053 176.8691,116.3583 L174.0271,135.3253 C173.5151,138.5463 173.0401,141.6563 172.6321,144.7073 L167.0591,171.7703 C165.5281,178.0733 166.5301,177.5153 163.4011,178.9393 C161.2991,179.8953 157.6641,181.5983 155.3951,182.0883 L155.3951,182.0883 Z M8.0471,181.9743 C6.7951,181.6983 4.7851,181.0763 3.9751,180.3093 L9.0641,168.1233 C10.7751,164.1063 12.3621,159.6423 13.7331,155.2713 C15.1631,150.7123 16.3881,146.2353 17.4001,141.4223 C18.4011,136.6553 18.6221,134.7843 19.1331,130.1673 L19.8071,126.1273 C26.1071,128.0753 30.5061,123.3603 32.7551,122.7093 C33.8121,125.0003 34.1291,129.0193 34.8801,131.6313 C35.7871,134.7863 37.6691,141.0983 39.1241,143.9523 C41.4021,148.4213 43.6531,151.9413 46.7801,155.7453 C49.1831,158.6693 54.1181,162.6413 57.6011,164.5933 C61.7221,166.9023 68.2571,169.8523 73.2901,171.2023 C71.6581,177.2403 70.6091,186.1073 69.9771,192.8113 L60.2741,192.3133 C60.5101,190.5523 61.0841,188.7273 61.4141,186.8673 C61.7581,184.9233 61.9431,182.9373 62.1671,180.9423 C62.6651,176.5063 62.9181,172.9763 63.0201,168.4353 C61.8291,169.0253 61.1131,172.2283 60.7481,173.5033 C59.9881,176.1563 57.3691,189.9343 57.1691,192.0003 L49.7471,191.3003 C49.9151,189.7253 51.5091,184.6013 52.1321,179.2333 C52.6701,174.5923 53.1831,170.7593 53.1611,165.9123 C52.8061,166.0373 52.7051,165.8063 52.3511,167.0163 C52.1851,167.5843 52.0871,168.0213 51.9421,168.5243 C51.6651,169.4893 51.3631,170.5373 51.1111,171.5253 C50.5781,173.6163 50.1801,175.7613 49.7571,177.8803 C48.9271,182.0423 47.6831,186.6603 47.1041,190.8573 L42.2071,190.3183 C42.3301,188.4643 43.3341,184.9033 43.7481,182.9033 C44.2921,180.2733 44.7891,177.7123 45.2551,175.0393 L46.9211,162.7863 C46.9881,162.0023 47.0891,161.3813 47.1491,160.6233 C47.1661,160.3993 47.2051,159.6163 47.1901,159.4233 L46.9271,158.4883 C46.6961,158.8603 43.6251,172.0143 43.1791,173.9363 C41.9851,179.0803 40.6211,184.7333 39.7041,189.8773 L33.7181,188.9063 L36.0421,179.5063 C36.7281,176.1993 37.3141,172.9513 37.9351,169.6383 C38.7361,165.3653 40.8201,152.9523 40.9211,149.1033 C40.1471,149.2913 40.5391,148.6033 39.9211,150.9843 L37.7941,158.2203 C35.2331,166.8953 32.6441,179.3943 30.6921,188.2473 L24.6671,187.0123 C25.5031,183.5863 26.9311,179.9133 27.8231,176.3093 C29.6331,168.9923 32.5041,151.9773 33.5911,143.6853 C33.6801,143.0043 34.0241,141.2293 33.7271,140.7153 C33.0671,141.4573 32.5791,145.2323 32.3441,146.2863 L28.1851,163.7373 C26.4641,171.1513 23.7351,178.9623 22.2331,186.3253 L16.9331,184.9673 C18.4581,181.7683 18.9691,180.6623 20.0621,177.1903 L20.6861,174.9383 C22.8651,169.1003 29.8021,141.6933 29.1101,138.3703 C28.4481,138.8633 28.8801,138.2633 28.5661,139.3743 C27.4681,143.2473 27.0141,145.3243 25.5711,149.5943 C23.0641,157.0213 20.7971,164.9803 18.4911,172.5223 C17.3921,176.1183 15.7021,180.5233 15.3301,184.4113 L9.8531,182.7453 C10.9941,179.2623 12.6271,175.8443 13.7941,172.1303 C17.3011,160.9603 20.0681,152.3263 22.5931,140.8603 L23.1171,138.5163 C23.0911,137.4053 23.1891,138.2113 22.9271,137.8183 C22.3991,138.6613 20.0211,147.0213 19.3901,148.9273 L8.0471,181.9743 Z M142.7511,186.0533 L134.2831,188.0253 C134.5061,185.3733 135.0801,182.4353 135.3971,179.7403 C135.7551,176.6803 135.7381,173.7843 135.7181,170.7093 C136.3011,170.3283 137.3771,169.9603 138.1621,169.5513 C139.1671,169.0283 139.7891,168.8463 140.8341,168.3783 C142.6641,167.5573 143.9691,166.3603 145.5531,165.4093 C144.6491,170.0403 141.6301,181.5683 142.7511,186.0533 L142.7511,186.0533 Z M124.3041,189.7683 C124.4771,188.5943 125.8851,175.7883 124.9281,174.3113 C122.9911,175.8413 121.7461,186.7433 122.0451,190.1443 L116.0431,190.9683 C116.1721,188.3083 116.2711,185.5513 116.3291,182.9503 L116.1691,175.5663 C116.3031,174.9333 116.1001,175.4223 116.3781,175.0393 C116.9121,174.7933 124.6211,173.7123 126.1471,173.3723 C129.3701,172.6523 132.3301,171.8133 135.190142,170.7903 C135.2021,172.0193 132.6211,183.4663 132.1031,186.0633 C131.8181,187.4873 132.1681,188.3623 130.9351,188.6873 C129.3161,189.1133 126.0461,189.5943 124.3041,189.7683 L124.3041,189.7683 Z M112.6211,191.3143 L105.4441,192.1083 C105.8741,187.4953 106.4391,183.4703 105.7311,178.8843 C105.6821,178.5663 105.6651,178.3763 105.5831,178.0563 C105.5631,177.9773 105.4971,177.7583 105.4741,177.6893 C105.2811,177.1393 105.4241,177.4633 105.2471,177.1923 C103.4991,178.9173 102.8881,188.8033 102.2761,192.0693 C102.2081,192.1083 102.1061,192.0723 102.0641,192.1633 C101.8531,192.6193 93.1271,192.7933 92.8181,192.7773 C93.0971,189.9353 94.5111,179.2403 93.4871,177.2103 C92.2901,177.7223 91.2711,182.9853 91.0361,184.3603 C90.5461,187.2433 90.4471,190.0773 90.0251,192.9053 L83.6821,193.0493 C83.9751,188.5083 85.1051,181.0933 84.5751,176.7413 C83.8731,177.1853 83.3381,178.8393 82.9571,179.8593 C82.4631,181.1783 82.1531,182.3933 81.8761,183.8673 C81.3141,186.8643 81.1481,189.8523 80.9831,193.0073 L72.8279867,192.9773 C72.8161,191.3353 73.7611,186.3313 73.8021,182.7103 C73.8431,179.0793 73.7781,175.0903 73.9121,171.5113 L83.0521,173.4373 C86.5351,173.9783 89.7391,174.4223 93.3291,174.7183 C100.0671,175.2763 108.6221,175.6773 115.3081,175.0403 C115.1091,177.1953 114.1541,180.2713 113.7881,182.8673 C113.4061,185.5823 112.8701,188.6193 112.6211,191.3143 L112.6211,191.3143 Z" id="Fill-5"/></g><path d="M19.3903,149.3747 C20.0203,147.4677 22.3993,139.1077 22.9273,138.2657 C23.1893,138.6577 23.0913,137.8527 23.1173,138.9637 L22.5933,141.3067 C20.0683,152.7727 17.3013,161.4077 13.7933,172.5767 C12.6273,176.2917 10.9943,179.7087 9.8533,183.1927 L15.3293,184.8587 C15.7023,180.9707 17.3913,176.5647 18.4913,172.9687 C20.7973,165.4277 23.0633,157.4687 25.5713,150.0417 C27.0143,145.7717 27.4683,143.6947 28.5663,139.8207 C28.8803,138.7107 28.4483,139.3107 29.1103,138.8167 C29.8023,142.1407 22.8653,169.5467 20.6853,175.3847 L20.0623,177.6367 C18.9693,181.1097 18.4573,182.2147 16.9333,185.4147 L22.2323,186.7717 C23.7353,179.4097 26.4633,171.5987 28.1843,164.1847 L32.3443,146.7337 C32.5793,145.6797 33.0663,141.9047 33.7273,141.1627 C34.0233,141.6757 33.6803,143.4517 33.5913,144.1317 C32.5033,152.4237 29.6333,169.4397 27.8233,176.7557 C26.9313,180.3607 25.5033,184.0337 24.6663,187.4587 L30.6923,188.6947 C32.6443,179.8407 35.2323,167.3417 37.7933,158.6667 L39.9213,151.4307 C40.5393,149.0507 40.1463,149.7377 40.9213,149.5497 C40.8203,153.3997 38.7363,165.8117 37.9343,170.0857 C37.3133,173.3977 36.7283,176.6457 36.0413,179.9537 L33.7183,189.3537 L39.7043,190.3247 C40.6203,185.1797 41.9853,179.5267 43.1793,174.3827 C43.6253,172.4607 46.6963,159.3077 46.9273,158.9357 L47.1903,159.8707 C47.2053,160.0637 47.1663,160.8467 47.1483,161.0707 C47.0893,161.8287 46.9883,162.4487 46.9203,163.2327 L45.2543,175.4867 C44.7883,178.1597 44.2923,180.7207 43.7473,183.3507 C43.3343,185.3507 42.3303,188.9117 42.2073,190.7657 L47.1033,191.3047 C47.6833,187.1067 48.9273,182.4897 49.7573,178.3277 C50.1803,176.2077 50.5773,174.0627 51.1113,171.9727 C51.3633,170.9847 51.6643,169.9367 51.9413,168.9707 C52.0863,168.4677 52.1853,168.0307 52.3513,167.4627 C52.7043,166.2527 52.8063,166.4837 53.1613,166.3597 C53.1833,171.2067 52.6703,175.0397 52.1323,179.6807 C51.5093,185.0487 49.9143,190.1717 49.7463,191.7477 L57.1693,192.4477 C57.3693,190.3817 59.9883,176.6037 60.7483,173.9507 C61.1133,172.6747 61.8293,169.4717 63.0193,168.8817 C62.9183,173.4227 62.6643,176.9537 62.1663,181.3887 C61.9423,183.3847 61.7583,185.3707 61.4133,187.3137 C61.0843,189.1737 60.5103,190.9997 60.2743,192.7597 L69.9763,193.2587 C70.6083,186.5547 71.6583,177.6867 73.2893,171.6487 C68.2573,170.2987 61.7223,167.3497 57.6013,165.0407 C54.1183,163.0887 49.1833,159.1167 46.7803,156.1927 C43.6533,152.3887 41.4023,148.8687 39.1233,144.3987 C37.6683,141.5457 35.7873,135.2327 34.8803,132.0777 C34.1293,129.4657 33.8123,125.4477 32.7553,123.1567 C30.5063,123.8077 26.1063,128.5217 19.8073,126.5737 L19.1333,130.6137 C18.6223,135.2317 18.4003,137.1027 17.3993,141.8697 C16.3883,146.6817 15.1623,151.1587 13.7333,155.7187 C12.3623,160.0897 10.7743,164.5527 9.0633,168.5697 L3.9753,180.7567 C4.7853,181.5237 6.7943,182.1457 8.0473,182.4207 L19.3903,149.3747 Z" id="Fill-8" fill="#4B4B4F"/><path d="M155.3947,182.5353 C157.6647,182.0453 161.2987,180.3423 163.4007,179.3863 C166.5307,177.9623 165.5287,178.5203 167.0587,172.2173 L172.6317,145.1543 C173.0407,142.1033 173.5147,138.9933 174.0277,135.7723 L176.8697,116.8053 C174.3197,117.3523 172.7537,117.9533 169.9377,117.2733 C166.2607,116.3853 166.0907,115.1183 164.5657,114.6713 C164.0337,124.4833 162.8207,135.0123 159.8807,143.7113 C157.2807,151.4073 155.1557,154.3713 151.1737,160.2033 C149.9317,162.0243 148.2657,163.1413 147.0887,164.5173 C146.8847,166.0063 147.1227,168.4703 147.0677,170.1973 C147.0127,171.9523 146.7887,173.6623 146.6177,175.4103 C146.2587,179.0823 146.0967,182.0443 145.4907,185.7533 L151.8807,183.7263 C152.8147,181.7713 159.2447,155.8303 160.0357,152.9873 C161.4687,147.8333 162.4427,142.5203 163.6987,137.2153 C164.6657,133.1273 166.6237,127.1533 167.2677,123.9773 C167.4697,122.9813 167.3927,122.8103 167.8877,122.1513 C168.4027,123.0063 167.9637,125.2643 167.8937,126.5173 C167.3967,135.4923 165.4197,145.2493 163.2817,153.8213 C162.0687,158.6783 160.9497,163.6453 159.6317,168.4293 L155.3947,182.5353 Z" id="Fill-10" fill="#4B4B4F"/><path d="M112.6213,191.7609 C112.8703,189.0669 113.4063,186.0299 113.7883,183.3149 C114.1543,180.7179 115.1083,177.6419 115.3083,175.4869 C108.6223,176.1249 100.0663,175.7229 93.3293,175.1659 C89.7393,174.8689 86.5353,174.4259 83.0523,173.8849 L73.9123,171.9589 C73.7783,175.5369 73.8433,179.5259 73.8023,183.1569 C73.7613,186.7789 72.8153,191.7819 72.8281672,193.4239 L80.9823,193.4549 C81.1473,190.2999 81.3133,187.3119 81.8763,184.3149 C82.1533,182.8399 82.4633,181.6249 82.9563,180.3059 C83.3383,179.2869 83.8723,177.6319 84.5753,177.1889 C85.1043,181.5409 83.9753,188.9559 83.6823,193.4969 L90.0253,193.3529 C90.4473,190.5249 90.5453,187.6899 91.0363,184.8069 C91.2703,183.4319 92.2893,178.1689 93.4873,177.6569 C94.5113,179.6879 93.0973,190.3829 92.8183,193.2239 C93.1273,193.2399 101.8523,193.0669 102.0633,192.6099 C102.1053,192.5189 102.2083,192.5549 102.2753,192.5169 C102.8883,189.2509 103.4993,179.3639 105.2473,177.6389 C105.4243,177.9099 105.2813,177.5869 105.4743,178.1359 C105.4973,178.2049 105.5623,178.4239 105.5833,178.5029 C105.6653,178.8229 105.6823,179.0129 105.7303,179.3319 C106.4383,183.9179 105.8743,187.9419 105.4443,192.5549 L112.6213,191.7609 Z" id="Fill-12" fill="#4B4B4F"/><path d="M166.6281,95.7311 C169.8991,92.3151 175.3541,90.2161 178.0501,92.5971 C178.5911,93.0751 178.2271,92.6641 178.4851,93.1561 C177.3201,95.1851 174.4071,94.2041 172.2241,95.5561 C172.7251,96.1561 174.1551,96.6411 174.8271,98.9461 C176.1391,103.4481 171.9401,109.2741 166.7871,106.2951 C165.9371,102.1801 169.8561,105.6621 171.5151,103.0251 C172.9431,100.7541 171.4261,97.3591 169.1301,97.7251 C168.1181,97.8861 165.6861,100.8641 165.5331,102.7441 C165.3351,105.1861 165.0301,108.3011 165.0031,110.6761 C167.6871,114.1121 172.8871,116.5421 178.1711,113.2791 C181.4271,111.2691 184.2971,106.7451 184.7061,101.3261 C185.2581,94.0121 181.1681,87.6311 175.7901,86.9611 C174.3801,86.7851 172.9001,86.8791 171.6191,87.2871 C168.5951,88.2471 167.6001,89.8511 165.9521,90.7601 L165.8831,96.3591 L166.6281,95.7311 Z" id="Fill-14" fill="#f45675"/><path d="M31.8415,75.4005 C34.4355,76.5915 56.3125,69.1115 59.9575,67.7865 C83.1535,59.3545 89.9805,56.0045 109.3155,44.6675 C112.6535,42.7095 117.2985,39.8235 120.1685,37.5115 C121.2175,36.6665 121.8135,36.2465 122.7365,35.5275 L125.2255,33.4625 C126.4355,32.4895 129.5965,30.6695 128.9815,28.1545 C126.8055,27.7375 124.5285,30.1225 123.1205,31.1025 C111.2565,39.3605 96.0685,48.2585 82.9645,54.3085 C71.1765,59.7495 57.4285,65.3725 45.1575,70.5045 C42.0045,71.8235 36.8615,73.8865 33.4805,74.6715 C32.5035,74.8995 32.2875,74.7535 31.8415,75.4005" id="Fill-16" fill="#000"/><path d="M42.716,79.8219 C43.261,80.4079 44.117,80.0809 46.07,79.8169 C47.371,79.6399 48.535,79.4359 49.767,79.1889 C52.107,78.7209 54.475,78.1729 56.755,77.5579 C73.762,72.9749 103.242,61.6109 117.948,51.6169 C119.684,50.4379 121.537,49.4439 123.186,48.2149 C126.635,45.6449 136.833,39.0919 136.735,35.7149 C136.726,35.4089 137.04,35.2689 135.724,35.7549 C132.894,36.8019 129.116,39.8979 126.495,41.6819 C124.912,42.7589 122.947,44.0719 121.273,45.1029 C119.464,46.2149 117.804,47.4279 115.87,48.5779 C108.48,52.9709 101.232,56.7289 92.983,60.4889 C82.636,65.2069 67.186,71.3339 56.059,75.6449 C53.942,76.4659 51.88,77.2179 49.69,77.9239 C48.418,78.3329 43.217,79.4369 42.716,79.8219" id="Fill-18" fill="#000"/><path d="M43.8356,85.9562 C44.3116,86.2662 43.7656,86.1682 44.7356,86.1692 L59.2286,83.1402 C72.5566,79.5882 88.5326,73.8822 100.9446,68.6982 C111.1516,64.4352 133.8446,52.3102 142.1586,44.3952 C143.1256,43.4752 146.4216,41.0922 145.9296,39.0338893 C145.0646,39.0242 145.0796,39.2552 144.5186,39.7832 C142.6036,41.5882 137.2966,45.2422 135.1276,46.7172 C123.7916,54.4262 111.5566,60.6542 98.7176,66.2212 C90.0796,69.9672 80.7676,73.3192 71.7146,76.6592 C65.2526,79.0432 57.4796,82.1052 50.9546,83.9902 C49.6676,84.3622 44.3796,85.5282 43.8356,85.9562" id="Fill-20" fill="#000"/><path d="M37.4763,65.6515 C38.0433,66.1695 38.6013,65.7545 40.1883,65.2935 C41.1023,65.0275 42.1643,64.6555 43.0863,64.3585 C56.2423,60.1115 68.9783,54.3425 81.2873,48.3195 C89.0153,44.5375 102.8553,35.9985 109.4693,30.1755 C111.6343,28.2705 116.5023,24.0575 116.2763,21.4255 C115.1113,21.6175 112.5383,23.5685 111.5353,24.3245 L107.1983,27.6665 C100.0323,33.3165 86.6363,41.4015 78.6503,45.4375 C71.8163,48.8905 64.9763,52.2165 58.1113,55.6165 C53.4003,57.9495 44.6493,62.5165 40.0493,64.4405 C39.1983,64.7955 38.0823,65.1535 37.4763,65.6515" id="Fill-22" fill="#000"/><path d="M124.3039,190.2155 C126.0459,190.0415 129.3159,189.5605 130.9349,189.1335 C132.1679,188.8095 131.8189,187.9345 132.1029,186.5105 C132.6209,183.9135 135.2019,172.4655 135.189942,171.2365 C132.3299,172.2605 129.3699,173.0995 126.1469,173.8195 C124.6209,174.1595 116.9119,175.2405 116.3779,175.4865 C116.0999,175.8685 116.3029,175.3805 116.1689,176.0125 L116.3289,183.3975 C116.2709,185.9985 116.1719,188.7555 116.0429,191.4155 L122.0449,190.5915 C121.7459,187.1905 122.9919,176.2885 124.9279,174.7575 C125.8849,176.2355 124.4769,189.0415 124.3039,190.2155" id="Fill-24" fill="#4B4B4F"/><path d="M43.8171,56.6764 C44.0941,56.8444 44.0771,56.9204 44.8281,56.7694 L52.4211,54.0094 C55.2591,52.8304 57.9011,51.6134 60.6901,50.2844 C66.0771,47.7184 71.3671,44.8744 76.3771,41.9684 C83.8301,37.6444 87.8851,35.5214 94.6741,30.2674 C96.7001,28.6984 104.3301,22.7934 102.9601,20.8164 C101.9001,19.2864 97.3811,23.7614 95.9621,24.8304 C84.5191,33.4474 71.4831,40.6104 59.2251,48.0884 C55.5131,50.3534 51.7191,52.6794 47.7921,54.6644 C46.7691,55.1814 44.3631,56.0424 43.8171,56.6764" id="Fill-26" fill="#000"/><path d="M142.7512,186.5006 C141.6302,182.0156 144.6482,170.4866 145.5532,165.8566 C143.9692,166.8076 142.6642,168.0046 140.8342,168.8256 C139.7892,169.2936 139.1672,169.4756 138.1622,169.9986 C137.3772,170.4076 136.3012,170.7746 135.7182,171.1566 C135.7382,174.2316 135.7552,177.1276 135.3972,180.1876 C135.0802,182.8816 134.5062,185.8196 134.2832,188.4726 L142.7512,186.5006 Z" id="Fill-28" fill="#4B4B4F"/><path d="M172.0031,77.5978 C172.1241,77.0288 172.1331,77.4038 171.6211,76.9638 C171.3471,76.7278 171.0571,76.5628 170.7771,76.3508 C167.3751,73.7688 155.9791,62.0028 152.4841,58.3978 C151.8341,57.7268 151.6571,57.3538 151.1071,56.6518 C150.2961,55.6178 149.1571,53.8658 147.5511,54.1198 C145.9981,56.3738 149.7431,60.0058 151.2241,61.5798 C152.2701,62.6918 153.2791,63.6088 154.4061,64.6398 C157.7651,67.7138 160.4701,70.3628 164.4151,73.1138 C165.7321,74.0318 170.9991,77.8368 172.0031,77.5978" id="Fill-30" fill="#000"/><path d="M156.2238,47.4064 C153.0458,49.7984 178.5858,69.1034 170.6558,61.3534 L164.9078,54.8534 C163.5908,53.4044 162.1718,52.2044 160.8678,50.7374 C160.2648,50.0594 157.5858,46.3804 156.2238,47.4064" id="Fill-32" fill="#000"/><path d="M165.9934,87.3996 C167.2044,86.5806 168.4794,85.5646 170.0844,84.9036 L166.0174,83.5596 L165.9934,87.3996 Z" id="Fill-34" fill="#4B4B4F"/></g></g></g></g><g id="Expression" transform="translate(166.000000, 228.000000) scale(1.6492537313432836 1.6466165413533835)"><g id="Expression/Happy" stroke="none" stroke-width="1" fill="none" fill-rule="evenodd"><g id="Group-9" transform="translate(20.000000, 26.000000)"><path d="M37.2872,48.7560015 C37.1292,54.6150015 41.0122,60.4340015 44.7442,63.9440015 C50.4632,69.3230015 62.6502,71.7060015 71.1802,67.3140015 C79.2142,63.1770015 83.5512,55.6560015 84.2542,45.7230015 C81.6362,46.2970015 78.2852,47.6220015 73.7722,48.5680015 C70.1752,49.3210015 65.7022,49.9850015 61.9132,50.2290015 C55.2202,50.6620015 49.4482,50.7350015 42.8512,49.7550015 C41.0722,49.4900015 38.8412,48.8760015 37.2872,48.7560015 M43.0552,57.1900015 C49.8622,56.3210015 57.4332,56.8290015 62.6832,61.1180015 C63.9632,62.1630015 65.6312,63.8210015 66.4862,65.5220015 C57.9912,67.7300015 47.8472,64.9750015 43.0552,57.1900015" id="Fill-30" fill="#000"/><path d="M11.3311,37.1198015 L13.3241,37.0508015 C14.5261,35.1868015 15.6411,30.7028015 19.0221,27.6378015 C21.5221,25.3708015 25.1011,23.0408015 30.2311,23.5208015 C29.4391,25.3908015 28.6361,26.6138015 27.9771,28.9058015 C27.2691,31.3648015 27.1661,33.3268015 27.5031,35.8818015 L45.0371,34.4998015 C44.5521,28.0808015 36.4851,19.1048015 27.0021,20.4928015 C18.8871,21.6798015 12.3641,30.4788015 11.3311,37.1198015" id="Fill-32" fill="#000"/><path d="M90.9576,19.0592015 C87.6476,15.2632015 81.2026,14.7382015 76.7006,18.5862015 C73.4086,21.4002015 69.8266,28.2752015 70.5986,32.2952015 L71.7326,32.2692015 C72.7896,30.9832015 72.9526,26.5702015 75.8246,22.9872015 C77.4286,20.9862015 80.2086,17.9002015 84.3596,18.3572015 C84.2206,19.1292015 82.7346,20.5932015 81.8336,24.2132015 C81.3046,26.3412015 80.9196,29.9312015 81.8936,31.7962015 C83.5136,31.7912015 94.3986,31.4352015 94.8996,31.0732015 C95.3196,30.5802015 94.9316,31.4702015 95.0976,30.6042015 C95.1476,30.3422015 95.1516,30.0542015 95.1416,29.7832015 L94.5336,25.3742015 C96.7866,26.6462015 99.1946,24.1542015 99.1156,21.8112015 C97.6436,21.8292015 97.0036,22.0972015 96.0506,22.8182015 C94.6506,23.8772015 94.8726,23.7392015 94.4226,25.3772015 C93.9926,22.9062015 92.5736,21.4822015 91.7396,19.8622015 C93.5716,19.0282015 93.5626,18.4962015 94.6256,16.5952015 C95.3586,15.2842015 96.1316,13.5292015 96.2246,11.9812015 C95.1336,12.2952015 92.4956,15.9722015 91.9026,16.9902015 C91.5456,17.6022015 91.3016,18.4872015 90.9576,19.0592015" id="Fill-34" fill="#000"/><path d="M43.0552,57.1901015 C47.8472,64.9751015 57.9912,67.7301015 66.4862,65.5221015 C65.6312,63.8211015 63.9632,62.1631015 62.6832,61.1181015 C57.4332,56.8291015 49.8622,56.3211015 43.0552,57.1901015" id="Fill-36" fill="#FEFEFE"/><path d="M16.564,4.27700155 C25.418,4.62500155 30.263,4.85700155 36.454,10.0750015 C38.231,11.5730015 39.608,14.3560015 41.719,15.3810015 C43.742,16.3630015 44.236,15.3290015 43.688,13.4020015 C43.146,11.4990015 40.386,8.40600155 39.258,7.51400155 C33.539,2.99000155 27.42,0.233001546 19.679,2.12300155 C18.754,2.34900155 17.742,2.73800155 17.104,3.39200155 C16.422,4.09100155 16.782,3.46600155 16.564,4.27700155" id="Fill-38" fill="#000"/><path d="M68.7886,13.5338015 C72.1516,13.9708015 72.3286,9.51580155 79.3996,5.69380155 C81.9516,4.31380155 86.6336,2.69680155 89.7416,1.87480155 C90.3426,1.71580155 91.0936,1.52680155 91.7126,1.42880155 C93.0256,1.22080155 92.7686,1.56380155 93.1116,0.827801546 C88.5156,-1.14919845 81.2146,0.767801546 77.3206,2.88680155 C74.4776,4.43280155 67.9096,9.23080155 68.7886,13.5338015" id="Fill-40" fill="#000"/><path d="M67.2891,33.6701015 C68.1311,30.0101015 58.8861,25.1721015 53.8081,29.2981015 C52.9371,30.0041015 50.9811,31.9861015 50.5261,33.2541015 C50.2031,34.1541015 50.4351,35.4021015 51.5191,34.7161015 C52.3661,34.1791015 54.2171,30.3881015 57.4701,29.8701015 C63.4781,28.9121015 64.1041,34.9661015 67.2891,33.6701015" id="Fill-42" fill="#000"/><path d="M5.4547,18.1295015 C5.2627,19.2835015 13.0527,29.6915015 15.2377,27.4425015 C16.5857,26.0555015 12.7577,23.4225015 11.1887,22.1395015 C10.2577,21.3785015 6.4847,18.0485015 5.4547,18.1295015" id="Fill-44" fill="#000"/><path d="M11.273,30.9254015 C11.722,29.3844015 10.548,28.8864015 9.448,28.1964015 C8.336,27.4984015 7.363,27.0304015 6.303,26.2984015 C5.236,25.5624015 1.008,22.6994015 -3.46389584e-14,22.5134015 C0.399,23.4594015 8.31,31.7804015 11.273,30.9254015" id="Fill-46" fill="#000"/><path d="M1.4947,30.0270015 C1.5567,31.5530015 9.6977,36.6680015 11.0277,35.2220015 C12.7327,33.3690015 8.2257,32.4530015 7.0677,32.0160015 C5.2207,31.3190015 3.1857,30.5870015 1.4947,30.0270015" id="Fill-48" fill="#000"/><path d="M98.46,15.3146015 C97.379,15.6706015 96.094,17.2946015 94.993,18.1576015 C94.656,18.4206015 91.661,21.2116015 93.915,21.7116015 C96.207,22.2196015 99.539,14.9586015 98.46,15.3146015" id="Fill-50" fill="#000"/></g></g></g><g id="Head Gear" transform="translate(130.000000, 7.000000) scale(1.6493506493506493 1.646153846153846)"><g id="Head Gear/None" stroke="none" stroke-width="1" fill="none" fill-rule="evenodd" fill-opacity="0"/></g></g></svg>