<svg viewBox="100.46052631578948 127.53750000000002 308.07894736842115 315.48749999999995" xmlns="http://www.w3.org/2000/svg" overflow="visible" xmlns:xlink="http://www.w3.org/1999/xlink" width="308.07894736842115px" height="315.48749999999995px"><g id="Master/Character/Head" stroke="none" stroke-width="1" fill="none" fill-rule="evenodd"><g id="Head" transform="translate(21.000000, 43.000000) scale(1.647887323943662 1.6508474576271186)"><g id="Head/Afro" stroke="none" stroke-width="1" fill="none" fill-rule="evenodd"><g id="Group-38" transform="translate(51.000000, 53.000000)"><path d="M48.2095,22.5209 C47.3215,22.7219 46.0035,20.9639 42.7905,19.8429 C26.7045,14.2289 9.2545,29.6689 13.9375,47.1539 C12.7795,47.9039 11.4185,48.1519 10.0465,49.1509 C-1.6175,57.6339 6.5075,75.6229 11.6395,77.8469 C10.6755,80.8549 9.7025,82.1239 10.0215,86.0069 C10.5085,91.9519 15.2295,97.9919 20.0785,100.6439 C20.8515,101.0659 22.7255,101.8409 23.3005,102.3539 L23.3675,104.5719 C22.0965,103.9419 21.3305,103.1669 19.6875,102.4699 C5.2355,96.3289 -4.9355,116.8399 3.8585,131.2609 C7.9885,138.0329 15.1635,142.7469 23.0545,138.9629 C24.5935,138.2249 25.4195,137.2059 26.5525,136.4629 C26.9785,137.7259 28.1225,144.6119 29.3415,148.7319 C30.6445,153.1379 31.9435,155.8279 33.8495,159.5859 C41.1645,174.0159 54.3785,181.0789 69.2455,185.1539 C77.7835,187.4949 87.3635,188.0959 96.6055,188.4669 C109.9385,189.0019 129.1825,186.8719 139.7395,178.1299 C141.2125,176.9109 142.3565,175.6569 143.6175,174.3289 C147.6695,170.0589 151.8365,161.5789 154.1275,154.3379 C156.4925,146.8629 157.6585,135.8659 158.0845,127.4709 C159.3605,127.8539 164.1605,132.9379 172.2375,128.7859 C185.5015,121.9679 184.9335,96.7999 166.8335,96.9039 L167.0925,96.5909 C167.9205,95.7199 168.2555,95.7399 169.1095,94.9369 C170.9885,93.1709 173.3765,89.6609 173.4175,86.5629 C182.5385,82.6659 184.1415,63.6949 172.5055,59.8249 C173.5185,54.6999 173.6315,50.9499 170.1185,46.3639 C168.9265,44.8079 168.4065,44.5849 167.1535,43.4529 C167.7435,41.6169 173.1705,35.7329 166.1355,27.2979 C164.8385,25.7429 162.1255,23.8979 159.3995,22.9989 C155.7085,21.7799 153.7045,22.1989 150.3655,23.4159 C148.9155,20.8559 150.4155,19.3999 145.4355,12.9719 C143.5815,10.5779 140.1015,7.8999 136.4215,6.3719 C127.4435,2.6419 118.3355,4.1389 111.4855,8.7859 C107.6055,7.1689 105.9675,5.8979 100.6785,6.1369 C95.7725,6.3569 93.8355,7.7029 90.4435,9.3979 C84.1125,-4.3951 57.6955,-2.5021 49.8165,14.7729 C47.6135,19.6039 48.8745,20.6079 48.2095,22.5209 L48.2095,22.5209 Z M159.5015,103.5579 C160.8005,102.8129 161.6095,101.6939 163.4275,100.7759 C165.0855,99.9379 166.9655,99.4989 169.0845,99.7409 C172.9775,100.1879 175.1725,102.7389 176.5595,105.4409 C182.3535,116.7309 172.7355,131.1999 163.0125,126.9049 C161.4055,126.1949 159.9695,125.1129 159.0585,124.1409 C158.2115,123.2359 158.5035,122.8319 158.6475,121.4269 C159.0325,117.6339 158.5035,115.1699 160.0995,113.0409 C160.8675,112.0179 161.9385,109.8569 163.8365,110.7069 C165.2355,111.3329 166.1725,113.5869 165.2075,115.5189 C163.9805,117.9709 162.5205,116.2729 160.2405,117.1089 L160.3055,119.0929 C163.7325,121.0779 166.6125,119.1669 167.8895,116.5209 C170.3705,111.3789 166.1055,108.7919 165.7405,108.3539 C167.9315,106.9919 170.8435,107.9689 172.0035,105.9539 C170.9525,103.9599 166.8965,104.3429 164.7415,105.1999 C161.2715,106.5779 160.5655,108.4519 159.3945,109.1579 L159.5015,103.5579 Z M80.1705,77.0299 C87.0275,82.4449 98.9815,83.7359 106.8655,77.8139 C111.1455,74.6009 110.2125,74.1439 112.4455,71.5839 C114.4405,72.6309 114.9575,73.7689 118.7465,74.4799 C122.1025,75.1099 123.4705,74.3659 126.3655,73.7649 C126.8985,74.6329 127.6445,77.5669 128.2215,78.8939 C132.8875,89.6169 144.1755,99.0809 156.2435,99.4389 C156.5505,110.7829 155.3725,121.6839 154.3965,132.8019 C153.4385,143.7149 152.4205,152.2889 148.0855,161.2769 C145.9875,165.6249 144.2685,169.1629 141.4495,172.1609 C138.2225,175.5919 136.4235,177.3539 131.6755,179.6629 C124.7635,183.0249 111.2825,185.4689 102.6055,185.4689 C84.8025,185.4689 67.7165,183.9759 52.5745,175.4219 C47.1915,172.3809 45.5855,170.5179 41.8765,166.4519 C35.3855,159.3359 32.0425,150.8699 29.6345,138.8349 C27.5425,128.3819 26.0575,113.7759 25.7605,103.0159 C30.1925,103.8009 32.5125,104.2179 37.2245,103.4879 C43.5505,102.5059 50.0425,99.8289 54.5515,95.8149 C55.7145,94.7789 59.2775,90.6809 59.8665,88.5869 C65.9565,89.1449 68.5175,88.8789 73.1835,86.1299 C76.8165,83.9899 78.7935,81.8789 80.1705,77.0299 L80.1705,77.0299 Z M20.6895,116.3039 C21.5455,116.6489 23.9505,118.9789 24.3025,119.7409 C24.3295,119.8009 24.3555,119.8619 24.3775,119.9259 L25.7965,131.1899 C26.0685,132.8329 25.1055,133.8319 23.3415,135.1709 C20.6095,137.2439 16.6255,137.9079 13.0515,136.2249 C-0.4355,129.8729 0.6515,104.3719 14.5225,104.428805 C18.8175,104.4469 21.0585,106.8479 23.6115,108.4099 L24.1565,116.1149 C23.2205,115.5399 23.4445,115.2749 22.4005,114.3969 C18.8845,111.4389 14.1705,110.4269 10.7055,113.6529 C9.7625,114.5309 8.1225,115.8989 8.6075,117.8869 C10.7045,119.4459 10.8905,116.4869 12.4525,115.3969 C14.0475,114.2829 16.1915,114.3999 18.2025,114.8259 L17.6265,115.2909 C17.4145,115.4439 17.3905,115.4409 17.1845,115.5799 C16.2615,116.2029 15.7325,116.7939 15.1835,117.8909 C14.4955,119.2619 14.1525,120.9489 14.5495,122.7179 C15.2425,125.8019 18.0805,127.7089 21.9195,127.2389 C24.4175,126.9329 24.1755,124.7379 22.8155,124.3179 C21.3305,123.8589 20.4915,125.5999 18.3885,123.6909 C14.7185,120.3599 20.2725,116.7159 20.6895,116.3039 L20.6895,116.3039 Z" id="Fill-30" fill="#000"/><path d="M80.1709,77.0297 C78.7939,81.8797 76.8169,83.9897 73.1839,86.1307 C68.5179,88.8787 65.9569,89.1447 59.8669,88.5877 C59.2769,90.6807 55.7149,94.7797 54.5519,95.8147 C50.0429,99.8287 43.5499,102.5067 37.2239,103.4877 C32.5129,104.2177 30.1929,103.8007 25.7599,103.0157 C26.0569,113.7757 27.5429,128.3817 29.6339,138.8357 C32.0429,150.8697 35.3849,159.3357 41.8769,166.4517 C45.5859,170.5177 47.1919,172.3817 52.5739,175.4217 C67.7159,183.9757 84.8019,185.4687 102.6059,185.4687 C111.2819,185.4687 124.7639,183.0247 131.6749,179.6627 C136.4229,177.3547 138.2229,175.5917 141.4489,172.1607 C144.2689,169.1627 145.9869,165.6257 148.0859,161.2767 C152.4209,152.2887 153.4389,143.7147 154.3969,132.8017 C155.3719,121.6837 156.5499,110.7827 156.2429,99.4387 C144.1749,99.0807 132.8869,89.6167 128.2219,78.8937 C127.6449,77.5677 126.8989,74.6327 126.3649,73.7647 C123.4709,74.3657 122.1019,75.1097 118.7459,74.4797 C114.9569,73.7687 114.4409,72.6307 112.4449,71.5837 C110.2129,74.1437 111.1449,74.6007 106.8659,77.8147 C98.9819,83.7367 87.0279,82.4447 80.1709,77.0297" id="Fill-32" fill="#0099a3"/><path d="M20.6895,116.3036 C20.2725,116.7156 14.7185,120.3606 18.3885,123.6916 C20.4915,125.5996 21.3305,123.8586 22.8155,124.3176 C24.1755,124.7386 24.4175,126.9326 21.9195,127.2386 C18.0805,127.7086 15.2425,125.8026 14.5495,122.7186 C14.1525,120.9486 14.4955,119.2616 15.1835,117.8906 C15.7325,116.7946 16.2615,116.2026 17.1845,115.5796 C17.3905,115.4406 17.4145,115.4436 17.6265,115.2906 L18.2025,114.8256 C16.1915,114.3996 14.0475,114.2826 12.4525,115.3966 C10.8905,116.4866 10.7045,119.4466 8.6075,117.8866 C8.1225,115.8996 9.7625,114.5316 10.7055,113.6536 C14.1705,110.4276 18.8845,111.4396 22.4005,114.3976 C23.4445,115.2756 23.2205,115.5396 24.1565,116.1156 L23.6115,108.4096 C21.0585,106.8476 18.8175,104.4476 14.5225,104.428505 C0.6515,104.3716 -0.4355,129.8726 13.0515,136.2246 C16.6255,137.9076 20.6095,137.2436 23.3415,135.1706 C25.1055,133.8316 26.0685,132.8326 25.7965,131.1896 L24.3775,119.9266 C24.3555,119.8616 24.3295,119.8016 24.3025,119.7416 C23.9505,118.9786 21.5455,116.6496 20.6895,116.3036" id="Fill-34" fill="#0099a3"/><path d="M159.5015,103.558 L159.3945,109.158 C160.5655,108.452 161.2715,106.578 164.7415,105.2 C166.8965,104.343 170.9525,103.96 172.0035,105.954 C170.8435,107.969 167.9315,106.992 165.7405,108.354 C166.1055,108.792 170.3705,111.379 167.8895,116.521 C166.6125,119.167 163.7325,121.078 160.3055,119.093 L160.2405,117.109 C162.5205,116.273 163.9805,117.971 165.2075,115.518 C166.1725,113.587 165.2355,111.332 163.8365,110.706 C161.9395,109.857 160.8675,112.017 160.0995,113.041 C158.5035,115.17 159.0325,117.634 158.6475,121.427 C158.5035,122.832 158.2115,123.236 159.0585,124.141 C159.9695,125.113 161.4055,126.195 163.0125,126.905 C172.7355,131.2 182.3535,116.731 176.5595,105.441 C175.1725,102.739 172.9775,100.187 169.0845,99.741 C166.9655,99.498 165.0855,99.938 163.4275,100.776 C161.6095,101.694 160.8005,102.813 159.5015,103.558" id="Fill-36" fill="#0099a3"/></g></g></g><g id="Expression" transform="translate(166.000000, 228.000000) scale(1.6492537313432836 1.6466165413533835)"><g id="Expression/Goofy" stroke="none" stroke-width="1" fill="none" fill-rule="evenodd"><g id="Group-13" transform="translate(19.000000, 13.000000)"><path d="M16.2263365,33.3346177 C15.5943365,34.5696177 12.6673365,36.0286177 11.9763365,39.7736177 C10.1883365,49.4616177 20.6223365,54.2216177 30.0283365,53.0616177 C42.9413365,51.4706177 50.6003365,39.2426177 39.6233365,31.6536177 L38.7553365,30.9286177 C39.9013365,30.0546177 44.1733365,28.8376177 45.4363365,23.5556177 C46.5073365,19.0776177 45.1693365,15.3446177 42.6513365,13.2436177 C37.5383365,8.97861771 25.4943365,11.3136177 18.5993365,12.0596177 C10.5383365,12.9326177 1.81533654,14.2986177 0.257336536,21.6066177 C-0.712663464,26.1546177 1.17433654,29.6256177 3.99233654,31.2606177 C7.30933654,33.1836177 11.9383365,33.3206177 16.2263365,33.3346177 M30.0973365,32.5596177 C35.4213365,31.8856177 42.7413365,36.4586177 40.4043365,42.5276177 C38.6593365,47.0586177 31.5003365,49.8546177 26.1623365,49.6996177 C13.6343365,49.3386177 11.4643365,38.8326177 21.0123365,34.1766177 C24.3983365,32.5246177 26.2063365,33.0516177 30.0973365,32.5596177" id="Fill-140" fill="#000"/><path d="M69.0813365,0.0797177053 C62.1373365,0.942717705 56.6623365,9.14571771 66.6873365,14.1707177 C71.7003365,16.6827177 82.1973365,19.6177177 88.5633365,19.8467177 C93.2833365,20.0167177 95.5093365,17.9757177 96.0833365,13.7627177 C96.6093365,9.90571771 94.0453365,7.13871771 90.8743365,5.57571771 C86.4883365,3.41471771 74.6723365,-0.616282295 69.0813365,0.0797177053" id="Fill-142" fill="#000"/><path d="M80.9905365,66.4489177 C81.6555365,67.3489177 81.6835365,67.9149177 83.0665365,68.3809177 C84.2005365,68.7629177 85.2035365,68.4959177 85.8205365,67.7859177 C87.6005365,65.7329177 86.0255365,63.6009177 85.8175365,61.7719177 C85.6945365,60.6919177 87.5315365,59.6619177 88.4835365,56.9759177 C90.1935365,52.1569177 81.6645365,60.8059177 81.1795365,61.2149177 C79.8055365,62.3709177 78.3775365,63.5549177 76.8915365,64.6189177 C73.9435365,66.7299177 71.0995365,68.8489177 67.4535365,70.5329177 C51.7795365,77.7729177 39.8585365,73.5249177 27.8955365,63.5119177 C25.7265365,61.6969177 25.9075365,59.7839177 23.9125365,60.0679177 C23.4915365,62.0839177 25.9075365,64.9399177 27.0975365,65.9689177 C26.8225365,66.5029177 23.9115365,70.6699177 26.6485365,72.4549177 C27.6645365,73.1179177 29.0135365,72.9169177 29.9685365,72.4189177 L31.8255365,70.9029177 C31.8655365,70.8689177 31.9255365,70.8169177 31.9615365,70.7869177 L32.4055365,70.4559177 C33.9655365,71.1759177 35.3175365,72.5559177 37.0405365,73.0559177 C36.6785365,75.4329177 36.6945365,78.0179177 38.9855365,78.3439177 C41.2015365,78.6569177 42.5725365,76.7559177 43.4455365,75.8809177 C47.9225365,77.0309177 47.5435365,76.5469177 47.8695365,77.9179177 C48.9315365,82.3889177 51.7475365,82.6949177 53.8225365,79.9419177 C56.2595365,76.7079177 52.8285365,77.8539177 61.5735365,76.4459177 C62.4495365,82.9689177 70.3725365,81.6589177 68.2295365,74.1609177 L71.7655365,72.5879177 C72.7365365,73.5349177 72.5335365,74.0599177 73.7815365,74.7569177 C77.0055365,76.5549177 79.2415365,74.3549177 78.1405365,68.6079177 C78.6015365,68.1139177 80.3095365,66.7129177 80.9905365,66.4489177 L80.9905365,66.4489177 Z M83.7565365,63.8479177 L83.9305365,65.9209177 C83.0895365,65.8849177 82.7985365,65.4449177 82.4445365,65.0069177 L83.7565365,63.8479177 Z M27.8215365,70.4999177 C27.5505365,69.4079177 28.0055365,68.3349177 28.5435365,67.4289177 L30.1015365,68.5069177 C29.7325365,69.6159177 29.0755365,70.2369177 27.8215365,70.4999177 L27.8215365,70.4999177 Z M73.8985365,71.2219177 C74.6265365,70.8879177 74.8575365,70.5729177 75.6055365,70.3179177 C76.1255365,71.1819177 76.1415365,72.2229177 75.8235365,73.1239177 C74.7285365,72.9039177 74.2865365,72.2709177 73.8985365,71.2219177 L73.8985365,71.2219177 Z M38.7915365,75.9009177 C38.3985365,74.9479177 38.4955365,75.0789177 38.6915365,74.0419177 L40.3735365,74.8479177 C40.1105365,75.5899177 39.8185365,75.9679177 38.7915365,75.9009177 L38.7915365,75.9009177 Z M65.6575365,75.2479177 L65.3755365,78.2839177 C64.1285365,78.0529177 63.8065365,77.0839177 63.4315365,75.8699177 L65.6575365,75.2479177 Z M50.6455365,79.0329177 C50.0085365,78.5019177 49.9345365,78.4229177 49.8895365,77.2909177 L51.6045365,77.4549177 C51.3405365,78.3679177 51.2845365,78.5599177 50.6455365,79.0329177 L50.6455365,79.0329177 Z" id="Fill-144" fill="#000"/><path d="M30.0974365,32.5592177 C26.2064365,33.0512177 24.3984365,32.5252177 21.0124365,34.1762177 C11.4644365,38.8322177 13.6344365,49.3382177 26.1614365,49.7002177 C31.5004365,49.8542177 38.6594365,47.0582177 40.4044365,42.5282177 C42.7414365,36.4582177 35.4214365,31.8852177 30.0974365,32.5592177 M38.5774365,42.2072177 C37.0144365,45.9482177 30.6074365,44.1482177 32.3954365,40.2882177 C33.9524365,36.9252177 40.2684365,38.1632177 38.5774365,42.2072177" id="Fill-146" fill="#FEFEFE"/><path d="M80.8127365,30.5407177 C74.8717365,31.0707177 68.2897365,35.0897177 69.9107365,41.4207177 C72.0807365,49.8947177 85.3867365,51.7687177 92.5167365,46.1587177 C94.2917365,44.7627177 96.1497365,41.3147177 95.2857365,38.1297177 C93.8627365,32.8897177 87.6277365,29.9317177 80.8127365,30.5407177 M80.0447365,33.6457177 C84.6757365,32.7817177 90.0867365,34.9097177 91.4867365,37.6007177 C93.8557365,42.1557177 88.5127365,44.8237177 84.8307365,45.4517177 C80.3797365,46.2117177 74.9537365,44.1907177 73.4877365,41.4447177 C71.2237365,37.2057177 76.4097365,34.3247177 80.0447365,33.6457177" id="Fill-148" fill="#000"/><path d="M80.0451365,33.6461177 C76.4101365,34.3251177 71.2231365,37.2061177 73.4871365,41.4451177 C74.9531365,44.1911177 80.3791365,46.2111177 84.8301365,45.4521177 C88.5121365,44.8241177 93.8561365,42.1561177 91.4861365,37.6001177 C90.0871365,34.9101177 84.6761365,32.7821177 80.0451365,33.6461177 M75.6301365,36.8621177 C79.5221365,35.4321177 82.3521365,40.0091177 78.6291365,41.4001177 C74.5421365,42.9271177 71.9621365,38.2101177 75.6301365,36.8621177" id="Fill-150" fill="#FEFEFE"/><path d="M44.4968365,59.2780177 C41.5688365,59.7760177 41.3988365,57.7760177 39.3418365,58.5290177 C38.6848365,60.9510177 41.6748365,62.6130177 45.6988365,61.4800177 C47.6008365,60.9450177 48.0338365,63.4520177 52.8568365,64.2570177 C55.8858365,64.7630177 59.3958365,63.8630177 61.8108365,62.7390177 C63.1438365,62.1190177 64.1088365,61.4580177 65.0698365,60.7080177 C66.2268365,59.8050177 66.7318365,58.7620177 67.6848365,57.8960177 C69.4358365,58.4000177 74.7168365,59.2090177 74.3788365,55.9060177 C71.9808365,54.3720177 68.1158365,58.1780177 68.9598365,54.5570177 C69.4508365,52.4550177 69.9048365,50.7870177 68.5568365,49.2570177 C65.8828365,50.0000177 66.2638365,54.1470177 63.5478365,57.0260177 C58.3548365,62.5320177 50.8598365,62.9350177 45.9128365,56.5430177 C45.4458365,55.9390177 43.6068365,51.9410177 42.6658365,54.2080177 C41.9758365,55.8690177 44.0108365,58.1870177 44.4968365,59.2780177" id="Fill-152" fill="#000"/><path d="M38.5774365,42.2076177 C40.2684365,38.1636177 33.9524365,36.9256177 32.3954365,40.2886177 C30.6074365,44.1476177 37.0144365,45.9476177 38.5774365,42.2076177" id="Fill-154" fill="#000"/><path d="M75.6306365,36.8619177 C71.9626365,38.2109177 74.5426365,42.9269177 78.6296365,41.3999177 C82.3516365,40.0089177 79.5226365,35.4319177 75.6306365,36.8619177" id="Fill-156" fill="#000"/><path d="M27.8215365,70.4996177 C29.0755365,70.2366177 29.7325365,69.6156177 30.1015365,68.5066177 L28.5435365,67.4296177 C28.0055365,68.3346177 27.5505365,69.4076177 27.8215365,70.4996177" id="Fill-158" fill="#FEFEFE"/><path d="M63.4314365,75.8698177 C63.8064365,77.0838177 64.1284365,78.0528177 65.3754365,78.2838177 L65.6584365,75.2478177 L63.4314365,75.8698177 Z" id="Fill-160" fill="#FEFEFE"/><path d="M73.8982365,71.2223177 C74.2872365,72.2713177 74.7282365,72.9043177 75.8232365,73.1233177 C76.1412365,72.2233177 76.1252365,71.1823177 75.6052365,70.3183177 C74.8572365,70.5733177 74.6272365,70.8883177 73.8982365,71.2223177" id="Fill-162" fill="#FEFEFE"/><path d="M38.7917365,75.9010177 C39.8177365,75.9670177 40.1097365,75.5890177 40.3737365,74.8480177 L38.6907365,74.0420177 C38.4957365,75.0790177 38.3977365,74.9480177 38.7917365,75.9010177" id="Fill-164" fill="#FEFEFE"/><path d="M50.6452365,79.0328177 C51.2852365,78.5598177 51.3402365,78.3678177 51.6042365,77.4548177 L49.8902365,77.2908177 C49.9342365,78.4228177 50.0082365,78.5018177 50.6452365,79.0328177" id="Fill-166" fill="#FEFEFE"/><path d="M82.4446365,65.0065177 C82.7986365,65.4445177 83.0896365,65.8845177 83.9306365,65.9205177 L83.7566365,63.8485177 L82.4446365,65.0065177 Z" id="Fill-168" fill="#FEFEFE"/></g></g></g><g id="Head Gear" transform="translate(130.000000, 7.000000) scale(1.6493506493506493 1.646153846153846)"><g id="Head Gear/None" stroke="none" stroke-width="1" fill="none" fill-rule="evenodd" fill-opacity="0"/></g></g></svg>