<svg viewBox="100.46052631578948 53.700000000000045 308.07894736842115 396.0374999999999" xmlns="http://www.w3.org/2000/svg" overflow="visible" xmlns:xlink="http://www.w3.org/1999/xlink" width="308.07894736842115px" height="396.0374999999999px"><g id="Master/Character/Head" stroke="none" stroke-width="1" fill="none" fill-rule="evenodd"><g id="Head" transform="translate(21.000000, 43.000000) scale(1.647887323943662 1.6508474576271186)"><g id="Head/Monk" stroke="none" stroke-width="1" fill="none" fill-rule="evenodd"><g id="Group-22" transform="translate(52.000000, 80.000000)"><path d="M84.1609,4.504 C70.7759,6.04 55.1899,11.262 45.4889,19.663 C34.7219,28.988 28.8879,39.133 26.4869,54.653 C25.6279,60.212 25.6399,65.677 25.0499,71.205 C24.5099,76.25 25.4389,83.226 25.7739,88.375 C26.4899,99.372 27.5989,109.675 30.0869,119.993 C37.6669,151.43 62.3849,161.078 96.4729,161.604 C107.4699,161.773 118.2269,160.736 127.8689,157.248 C136.9809,153.952 142.4029,147.964 146.4009,139.775 C151.4559,129.419 152.1849,123.582 153.5989,110.913 C155.6589,92.451 157.1999,60.926 153.3329,43.091 C149.4169,25.035 134.3959,12.82 116.7979,7.607 C107.5139,4.856 94.4539,3.323 84.1609,4.504 M115.5099,25.857 C111.9279,27.703 111.4239,22.658 115.3309,23.746 C115.6849,24.463 115.7489,24.93 115.5099,25.857 M107.8149,26.324 C105.2819,27.653 103.6909,25.588 104.9629,24.178 C105.9739,23.056 108.4629,23.639 107.8149,26.324 M104.6059,32.951 C103.1769,30.372 108.7039,29.318 107.4109,33.35 C106.9859,33.514 106.5249,33.769 105.8459,33.725 C104.9619,33.667 104.8729,33.374 104.6059,32.951 M115.1499,30.219 C117.1899,29.48 117.9749,32.51 116.3059,33.174 C114.1649,34.025 113.3339,30.877 115.1499,30.219 M116.2629,37.757 C118.8039,36.642 119.9309,40.567 117.7289,41.292 C115.6239,41.985 113.6189,38.919 116.2629,37.757 M106.3389,38.65 C108.4229,38.068 109.0079,41.473 106.9319,42.007 C104.6869,42.584 103.8179,39.354 106.3389,38.65" id="Fill-1" fill="#7c6bba"/><g id="Group-5" transform="translate(0.000000, 0.784000)" fill="#000"><path d="M158.9095,75.6272 C158.7575,63.9572 158.8045,52.7782 156.4305,41.6162 C153.8265,29.3652 146.6075,20.1622 138.4495,13.9782 C124.2515,3.2142 106.6425,-0.3048 88.3195,0.2772 C74.4365,0.7172 54.7395,6.8002 44.4805,15.7112 C41.4095,18.3782 40.2275,19.7272 37.4735,22.3752 C36.7765,23.0462 35.9825,24.0652 35.3765,24.8442 C34.7225,25.6842 33.9815,26.5742 33.4095,27.4372 C32.1515,29.3302 31.1005,30.8572 29.8835,33.0352 C27.8875,36.6062 25.8425,41.6802 24.8235,46.2092 C24.0515,49.6372 22.7555,58.8122 22.6485,62.1782 C22.4515,68.3432 22.6695,73.8992 22.7555,79.9942 C21.4515,79.3622 20.6015,78.5232 18.9125,77.8332 C11.0215,74.6072 3.7845,79.5072 1.1155,87.5332 C-3.9435,102.7422 9.0755,120.9532 22.6115,114.3192 C24.0265,113.6262 24.8975,112.5842 25.9465,111.8982 C26.4875,113.5032 26.8375,116.3752 27.2025,118.2612 C28.4135,124.5062 30.5755,129.7742 33.3235,135.1812 C35.6785,139.8152 39.6155,144.5502 43.4035,148.1492 C44.7695,149.4472 45.8115,150.3182 47.5715,151.4212 C62.2605,160.6212 75.7375,163.1082 96.2325,163.9112 C106.2505,164.3032 114.8585,163.4182 123.8875,160.8792 C133.5045,158.1762 137.9745,155.2072 143.1285,149.6412 C147.1355,145.3142 151.3095,136.8932 153.5795,129.5902 C155.9045,122.1072 157.0545,111.2592 157.4775,102.9052 C158.8975,103.3312 160.6795,105.8022 165.3595,105.7852 C180.4345,105.7312 186.4605,82.4562 174.4115,74.4982 C172.2315,73.0582 169.4565,72.0312 166.1805,72.3922 C161.8675,72.8672 160.3635,75.0262 158.9095,75.6272 L158.9095,75.6272 Z M84.1605,3.7202 C94.4535,2.5392 107.5135,4.0712 116.7985,6.8222 C134.3955,12.0362 149.4175,24.2512 153.3325,42.3072 C157.1995,60.1422 155.6595,91.6672 153.5985,110.1292 C152.1855,122.7982 151.4565,128.6352 146.4005,138.9902 C142.4035,147.1802 136.9815,153.1682 127.8695,156.4642 C118.2265,159.9522 107.4705,160.9882 96.4725,160.8192 C62.3855,160.2942 37.6675,150.6462 30.0875,119.2092 C27.5985,108.8912 26.4905,98.5882 25.7745,87.5912 C25.4395,82.4412 24.5105,75.4662 25.0495,70.4212 C25.6405,64.8932 25.6275,59.4282 26.4875,53.8692 C28.8875,38.3492 34.7215,28.2042 45.4895,18.8792 C55.1905,10.4782 70.7755,5.2562 84.1605,3.7202 L84.1605,3.7202 Z M158.8955,78.9922 C160.1985,78.2442 160.9995,77.1282 162.8245,76.2112 C168.0615,73.5822 173.2515,75.6092 175.9535,80.8752 C182.8045,94.2272 168.5695,110.4272 158.4525,99.5742 C157.6055,98.6662 157.8975,98.2852 158.0345,96.9382 C158.4225,93.1312 157.9085,90.5972 159.4925,88.4752 C160.2585,87.4502 161.3335,85.2932 163.2315,86.1412 C164.6315,86.7662 165.5665,89.0222 164.6015,90.9532 C163.3765,93.4042 161.9135,91.7082 159.6345,92.5422 L159.6995,94.5272 C163.1295,96.5072 166.0055,94.6052 167.2835,91.9562 C169.7645,86.8142 165.4985,84.2272 165.1355,83.7882 C167.3075,82.4392 170.2445,83.3952 171.3965,81.3882 C170.2165,79.1442 165.1685,79.4312 161.2905,82.3552 C159.5845,83.6412 159.6535,84.0702 158.7885,84.5932 L158.8955,78.9922 Z M20.0825,91.7372 C20.8655,92.0532 23.7365,94.0282 23.9365,96.3932 L25.1905,106.6242 C25.4355,108.1012 25.1425,108.2992 24.3375,109.0912 C21.1835,112.1982 17.1905,113.8922 12.4465,111.6592 C2.9235,107.1812 0.3065,92.1632 5.4605,84.6872 C7.0525,82.3772 9.4705,79.8372 13.9175,79.8639866 C18.3075,79.8922 20.4085,82.2582 23.0055,83.8432 L23.5505,91.5502 C22.8645,91.1282 23.1825,91.3192 22.6235,90.6772 C22.2795,90.2802 22.2255,90.1932 21.7945,89.8312 C13.4095,82.7752 6.7275,91.3992 8.0025,93.3212 C10.0985,94.8802 10.2845,91.9212 11.8465,90.8312 C13.4425,89.7182 15.5855,89.8342 17.5975,90.2602 L17.0215,90.7262 C14.6185,92.4522 13.1805,94.8012 13.9515,98.1572 C14.6585,101.2412 17.4575,103.1462 21.3125,102.6732 C23.8125,102.3662 23.5685,100.1742 22.2095,99.7532 C20.7255,99.2932 19.8825,101.0332 17.7825,99.1262 C14.1125,95.7922 19.6735,92.1442 20.0825,91.7372 L20.0825,91.7372 Z" id="Fill-3"/></g><path d="M20.0828,92.5216 C19.6738,92.9276 14.1128,96.5766 17.7828,99.9106 C19.8818,101.8176 20.7258,100.0776 22.2088,100.5376 C23.5688,100.9586 23.8118,103.1506 21.3128,103.4576 C17.4578,103.9296 14.6588,102.0256 13.9508,98.9416 C13.1808,95.5846 14.6188,93.2366 17.0208,91.5096 L17.5968,91.0436 C15.5858,90.6186 13.4418,90.5016 11.8458,91.6156 C10.2838,92.7056 10.0988,95.6646 8.0018,94.1056 C6.7278,92.1836 13.4088,83.5596 21.7948,90.6156 C22.2258,90.9776 22.2788,91.0646 22.6238,91.4606 C23.1828,92.1036 22.8638,91.9126 23.5508,92.3346 L23.0058,84.6266 C20.4078,83.0426 18.3078,80.6756 13.9168,80.6483866 C9.4698,80.6216 7.0518,83.1616 5.4598,85.4706 C0.3068,92.9476 2.9228,107.9646 12.4458,112.4436 C17.1908,114.6756 21.1838,112.9826 24.3368,109.8756 C25.1428,109.0836 25.4358,108.8846 25.1898,107.4086 L23.9368,97.1766 C23.7358,94.8126 20.8648,92.8366 20.0828,92.5216" id="Fill-6" fill="#7c6bba"/><path d="M158.8958,79.7764 L158.7888,85.3774 C159.6528,84.8544 159.5838,84.4244 161.2908,83.1384 C165.1678,80.2144 170.2158,79.9274 171.3968,82.1724 C170.2448,84.1784 167.3078,83.2224 165.1348,84.5724 C165.4988,85.0104 169.7648,87.5974 167.2838,92.7404 C166.0058,95.3884 163.1298,97.2914 159.6998,95.3114 L159.6348,93.3264 C161.9138,92.4924 163.3768,94.1884 164.6018,91.7374 C165.5658,89.8054 164.6308,87.5494 163.2308,86.9244 C161.3338,86.0774 160.2578,88.2344 159.4928,89.2584 C157.9088,91.3804 158.4218,93.9154 158.0348,97.7214 C157.8968,99.0694 157.6058,99.4504 158.4528,100.3584 C168.5698,111.2114 182.8048,95.0104 175.9538,81.6594 C173.2518,76.3934 168.0618,74.3664 162.8238,76.9954 C160.9998,77.9124 160.1988,79.0284 158.8958,79.7764" id="Fill-8" fill="#7c6bba"/><path d="M116.263,37.7569 C113.619,38.9189 115.624,41.9859 117.729,41.2919 C119.931,40.5679 118.804,36.6419 116.263,37.7569" id="Fill-10" fill="#000"/><path d="M106.3387,38.6505 C103.8177,39.3535 104.6867,42.5845 106.9317,42.0065 C109.0077,41.4725 108.4227,38.0685 106.3387,38.6505" id="Fill-12" fill="#000"/><path d="M107.8152,26.3243 C108.4622,23.6383 105.9742,23.0553 104.9632,24.1783 C103.6912,25.5883 105.2812,27.6533 107.8152,26.3243" id="Fill-14" fill="#000"/><path d="M104.6062,32.9513 C104.8732,33.3743 104.9622,33.6673 105.8462,33.7243 C106.5242,33.7683 106.9862,33.5133 107.4102,33.3493 C108.7042,29.3183 103.1762,30.3723 104.6062,32.9513" id="Fill-16" fill="#000"/><path d="M115.1497,30.2188 C113.3337,30.8768 114.1647,34.0258 116.3057,33.1738 C117.9757,32.5098 117.1907,29.4798 115.1497,30.2188" id="Fill-18" fill="#000"/><path d="M115.5096,25.8565 C115.7496,24.9295 115.6856,24.4625 115.3316,23.7465 C111.4236,22.6585 111.9276,27.7035 115.5096,25.8565" id="Fill-20" fill="#000"/></g></g></g><g id="Expression" transform="translate(166.000000, 228.000000) scale(1.6492537313432836 1.6466165413533835)"><g id="Expression/Excited" stroke="none" stroke-width="1" fill="none" fill-rule="evenodd"><g id="Group-67" transform="translate(21.000000, 21.000000)"><path d="M55.7104,68.33 C50.0624,68.316 44.3094,65.971 40.9114,62.289 C40.2534,61.576 36.7984,56.954 37.2694,60.381 C37.4374,61.605 38.7264,62.964 39.0974,63.638 C39.5124,64.39 38.5774,67.686 38.4374,69.109 C38.0364,73.173 38.9844,77.137 40.5614,80.156 C43.2534,85.313 48.6884,90.156 56.6694,90.6 C67.8884,91.224 76.4594,82.543 77.7384,72.145 C78.2124,68.294 77.5904,63.258 75.6424,60.933 C76.0984,59.581 79.4064,53.284 75.0954,53.976 C73.1284,56.963 74.2324,60.455 68.7734,64.399 C65.2244,66.965 61.2004,68.343 55.7104,68.33 L55.7104,68.33 Z M68.1084,68.464 C68.4244,67.545 67.8944,68.196 68.9884,67.484 C69.4234,67.202 71.0134,65.763 70.2654,68.745 C69.2054,69.041 68.8824,68.883 68.1084,68.464 L68.1084,68.464 Z M47.6574,69.673 C47.1824,70.463 47.1394,70.86 45.8704,70.968 C45.1514,70.267 44.9474,69.718 44.9734,68.413 L47.6574,69.673 Z M60.8734,70.694 C60.2094,72.806 57.5004,73.109 56.9434,71.125 L60.8734,70.694 Z M44.0634,80.006 C47.7194,77.957 52.7034,76.881 57.5774,77.795 C61.5304,78.536 66.5894,81.3 68.1844,83.493 C67.3134,84.83 64.6024,86.059 62.5424,86.724 C56.6564,88.623 50.1054,86.774 45.9574,82.445 C45.3044,81.764 44.6214,80.546 44.0634,80.006 L44.0634,80.006 Z" id="Fill-39" fill="#000"/><path d="M21.5937,3.207 C17.5497,3.781 14.6887,5.543 11.8967,7.283 L4.0667,13.37 C-2.3053,19.579 1.3627,30.979 10.2667,26.773 C14.2147,24.908 26.1557,19.728 28.5957,17.499 C34.9007,11.743 31.5577,1.794 21.5937,3.207" id="Fill-41" fill="#000"/><path d="M22.2534,29.8286 C19.2914,30.5436 17.0144,32.0426 15.6274,34.5236 C10.8064,43.1416 17.6854,55.2676 28.0054,52.8846 C33.3364,51.6526 37.6704,45.7576 35.8004,38.8286 C34.1374,32.6666 28.1654,28.4016 22.2534,29.8286 M30.9134,42.6096 C30.3114,39.6556 33.1754,39.6506 33.8734,40.7806 C34.8724,42.3976 32.8444,43.8166 30.9134,42.6096" id="Fill-43" fill="#FEFEFE"/><path d="M67.7622,1.0991 C62.2742,2.0751 56.9082,12.0971 64.5362,15.1501 C67.6502,16.3971 81.6662,20.1231 84.8502,19.5281 C87.5842,19.0161 89.9792,15.8031 91.0192,13.4371 C92.9922,8.9481 90.8872,7.0531 88.0392,5.3211 C84.3132,3.0551 72.9942,0.1681 67.7622,1.0991" id="Fill-45" fill="#000"/><path d="M87.4409,37.8925 C88.3369,32.7085 84.5549,27.6665 79.9469,27.6245 C75.0359,27.5805 70.9589,31.6005 70.3799,35.9915 C68.6479,49.1285 85.3539,49.9615 87.4409,37.8925 M73.3779,36.2305 C75.6739,35.4485 76.8599,38.9285 74.8069,39.7535 C73.5679,40.2505 72.4719,39.6105 72.1519,38.7065 C71.5639,37.0445 72.5349,36.5175 73.3779,36.2305" id="Fill-47" fill="#FEFEFE"/><path d="M23.4233,26.8051 C14.9943,27.7921 10.0593,35.7651 11.2353,43.2411 C12.3113,50.0771 19.0303,57.1471 27.3133,56.0601 C41.9543,54.1391 43.7583,33.2141 29.5663,27.5461 C27.7603,26.8241 25.5283,26.5581 23.4233,26.8051 M22.2533,29.8281 C28.1653,28.4021 34.1373,32.6661 35.8003,38.8281 C37.6703,45.7581 33.3363,51.6531 28.0063,52.8841 C17.6853,55.2681 10.8063,43.1421 15.6273,34.5231 C17.0143,32.0421 19.2913,30.5441 22.2533,29.8281" id="Fill-49" fill="#000"/><path d="M78.0757,25.0937 C72.3837,25.9647 67.5777,31.4517 67.4827,37.8917 C67.3877,44.3747 72.6697,50.0927 79.6027,49.0467 C85.4487,48.1647 90.0387,42.7987 90.1157,36.2137 C90.1917,29.6517 84.8987,24.0497 78.0757,25.0937 M87.4407,37.8927 C85.3537,49.9617 68.6477,49.1287 70.3797,35.9907 C70.9587,31.6007 75.0357,27.5807 79.9477,27.6247 C84.5547,27.6667 88.3377,32.7087 87.4407,37.8927" id="Fill-51" fill="#000"/><path d="M44.0635,80.0063 C44.6215,80.5463 45.3045,81.7643 45.9575,82.4453 C50.1055,86.7743 56.6565,88.6233 62.5425,86.7233 C64.6025,86.0593 67.3135,84.8303 68.1845,83.4923 C66.5895,81.3003 61.5305,78.5363 57.5775,77.7953 C52.7035,76.8813 47.7195,77.9573 44.0635,80.0063" id="Fill-53" fill="#FEFEFE"/><path d="M57.2842,29.8613 C56.4842,32.1593 59.6472,34.9293 61.7342,38.8293 C63.3232,41.8013 65.0922,45.4623 65.3082,49.4093 C65.9172,60.4903 54.2262,55.9093 52.9992,56.2983 C52.1422,56.5713 51.5962,57.5213 52.1252,58.4993 C53.5772,61.1833 71.1522,62.9703 68.3342,46.8703 C67.4392,41.7553 64.4882,36.3903 61.4572,32.6283 C60.7902,31.7993 59.0272,29.0363 57.2842,29.8613" id="Fill-55" fill="#000"/><path d="M73.3779,36.2304 C72.5349,36.5174 71.5639,37.0444 72.1519,38.7064 C72.4719,39.6104 73.5679,40.2504 74.8069,39.7534 C76.8599,38.9284 75.6739,35.4484 73.3779,36.2304" id="Fill-57" fill="#000"/><path d="M30.9136,42.6093 C32.8446,43.8173 34.8716,42.3973 33.8736,40.7803 C33.1756,39.6503 30.3116,39.6553 30.9136,42.6093" id="Fill-59" fill="#000"/><path d="M56.9434,71.1249 C57.5004,73.1089 60.2094,72.8059 60.8734,70.6939 L56.9434,71.1249 Z" id="Fill-61" fill="#FEFEFE"/><path d="M45.8706,70.9682 C47.1396,70.8602 47.1826,70.4632 47.6576,69.6732 L44.9736,68.4132 C44.9476,69.7182 45.1516,70.2662 45.8706,70.9682" id="Fill-63" fill="#FEFEFE"/><path d="M68.1089,68.4638 C68.8829,68.8828 69.2059,69.0408 70.2659,68.7448 C71.0129,65.7628 69.4239,67.2018 68.9889,67.4848 C67.8949,68.1958 68.4249,67.5458 68.1089,68.4638" id="Fill-65" fill="#FEFEFE"/></g></g></g><g id="Head Gear" transform="translate(130.000000, 7.000000) scale(1.6493506493506493 1.646153846153846)"><g id="Head Gear/Magician Hat" stroke="none" stroke-width="1" fill="none" fill-rule="evenodd"><g id="Group-6" transform="translate(32.000000, 31.000000)"><g id="Group-3" fill="#000"><path d="M15.3864,52.347 C14.4424,52.805 11.1824,53.517 8.5574,54.843 C5.6984,56.288 -1.8946,60.705 0.4384,64.908 C1.3244,66.503 4.5704,67.474 7.0454,67.909 C27.6174,71.522 51.7744,65.769 69.4594,56.473 C79.3654,51.266 80.5754,42.949 65.7944,41.862 C64.2604,41.749 62.4894,42.069 61.3594,41.962 C61.0144,38.071 56.3264,4.577 55.4524,2.705 C54.1774,-0.025 44.7754,0.977 42.3184,1.26 C33.5134,2.271 11.2154,7.905 4.9494,14.035 C3.1514,15.795 4.8974,19.523 5.5904,21.843 L15.3864,52.347 Z M7.2814,15.856 C8.4804,12.313 21.7874,8.144 27.0114,6.84 C32.3414,5.51 46.3854,1.885 51.8964,3.536 C52.0504,4.029 52.2774,4.141 50.4154,5.264 C41.3394,10.735 14.6464,18.328 7.2814,15.856 L7.2814,15.856 Z M20.3404,60.354 C19.5484,59.308 18.3384,54.578 17.9494,52.96 C22.1944,52.775 25.9424,53.14 30.2014,52.5 C38.6724,51.228 47.0094,48.644 54.5934,44.962 C56.0194,44.269 57.7174,43.155 58.8564,42.688 L60.2234,50.134 C54.0744,54.165 50.9364,56.322 42.9364,58.49 C34.5364,60.767 29.6134,61.43 20.3404,60.354 L20.3404,60.354 Z" id="Fill-1"/></g><path d="M20.3401,60.3544 C29.6131,61.4304 34.5371,60.7674 42.9371,58.4904 C50.9371,56.3214 54.0741,54.1654 60.2231,50.1334 L58.8571,42.6884 C57.7171,43.1544 56.0201,44.2694 54.5931,44.9624 C47.0091,48.6444 38.6721,51.2284 30.2021,52.5004 C25.9431,53.1404 22.1941,52.7744 17.9501,52.9594 C18.3381,54.5784 19.5481,59.3084 20.3401,60.3544" id="Fill-4" fill="#FA2D0D"/><path d="M7.2815,15.8563 C14.6465,18.3283 41.3395,10.7353 50.4155,5.2633 C52.2775,4.1413 52.0505,4.0293 51.8965,3.5363 C46.3855,1.8853 32.3415,5.5093 27.0105,6.8403 C21.7875,8.1443 8.4805,12.3133 7.2815,15.8563" id="Fill-6" fill="#6B6C71"/></g></g></g></g></svg>